<?xml version="1.0" encoding="UTF-8"?><svg id="Layout" xmlns="http://www.w3.org/2000/svg" viewBox="0 0 371.41 158.32"><g><path d="M148.48,71.98l15.49-40.6h5.97l15.43,40.6h-5.39l-4.29-10.96h-17.69l-4.29,10.96h-5.22Zm11.02-15.54h14.67l-7.37-19.55-7.31,19.55Z"/><path d="M207.77,42.4h4.76v29.58h-4.12l-.64-3.94c-1.74,2.2-4.58,4.29-9.45,4.29-6.5,0-11.66-3.65-11.66-13.46v-16.47h4.76v16.18c0,6.15,2.78,9.4,7.71,9.4,5.39,0,8.64-4.12,8.64-10.79v-14.79Z"/><path d="M220.14,46.75h-5.34v-4.35h5.34v-8.29h4.76v8.29h7.66v4.35h-7.66v17.46c0,2.49,.87,3.42,3.42,3.42h4.7v4.35h-5.16c-5.68,0-7.71-2.49-7.71-7.71v-17.52Z"/><path d="M262.12,55.5v16.47h-4.76v-16.18c0-6.15-2.96-9.4-8.06-9.4-5.51,0-8.93,4.12-8.93,10.79v14.79h-4.76V31.38h4.76v15.89c1.74-2.78,4.76-5.22,9.74-5.22,6.61,0,12,3.65,12,13.46Z"/><path d="M265.43,50.75c0-11.54,6.26-19.72,15.43-19.72s15.37,8.18,15.37,19.72v1.86c0,12.12-6.26,19.72-15.37,19.72s-15.43-7.6-15.43-19.72v-1.86Zm25.87,.17c0-9.63-4.18-15.43-10.44-15.43s-10.5,5.8-10.5,15.43v1.51c0,9.63,4.18,15.43,10.5,15.43s10.44-5.8,10.44-15.43v-1.51Z"/><path d="M180.2,112.49c0,9.05-6.03,15.14-14.21,15.14-4.99,0-8.35-2.03-10.15-4.87l-.64,4.52h-4.12v-40.6h4.76v15.78c1.97-2.73,5.16-5.1,10.15-5.1,8.18,0,14.21,5.51,14.21,15.14Zm-4.87,0c0-6.44-3.94-10.9-9.8-10.9s-9.74,4.47-9.74,10.79,3.94,11.02,9.74,11.02,9.8-4.47,9.8-10.9Z"/><path d="M180.02,97.7h5.05l9.11,23.61,8.82-23.61h5.05l-13.63,34.57c-1.86,4.76-2.96,6.61-7.13,6.61h-5.68v-4.35h4.23c2.73,0,3.19-.7,4.29-3.48l1.45-3.6-11.54-29.75Z"/><path d="M243.59,127.62c-11.43,0-19.37-8.7-19.37-20.65s7.95-20.65,19.37-20.65,19.37,8.7,19.37,20.65-7.95,20.65-19.37,20.65Zm0-4.64c8.47,0,14.21-6.67,14.21-16.01s-5.74-16.01-14.21-16.01-14.21,6.67-14.21,16.01,5.74,16.01,14.21,16.01Z"/><path d="M266.62,86.68h4.76v26.74l14.85-15.72h5.86l-11.54,12.24,12.35,17.34h-5.74l-9.8-13.92-5.97,6.15v7.77h-4.76v-40.6Z"/><path d="M298.63,102.05h-5.34v-4.35h5.34v-8.29h4.76v8.29h7.66v4.35h-7.66v17.46c0,2.49,.87,3.42,3.42,3.42h4.7v4.35h-5.16c-5.68,0-7.71-2.49-7.71-7.71v-17.52Z"/><path d="M342.04,122.93v4.35h-2.61c-3.94,0-5.28-1.68-5.34-4.58-1.86,2.67-4.81,4.93-9.92,4.93-6.5,0-10.9-3.25-10.9-8.64,0-5.92,4.12-9.22,11.89-9.22h8.7v-2.03c0-3.83-2.73-6.15-7.37-6.15-4.18,0-6.96,1.97-7.54,4.99h-4.76c.7-5.8,5.39-9.22,12.53-9.22,7.54,0,11.89,3.77,11.89,10.67v12.93c0,1.57,.58,1.97,1.91,1.97h1.51Zm-8.18-9.16h-9.16c-4.23,0-6.61,1.57-6.61,4.93,0,2.9,2.49,4.87,6.44,4.87,5.92,0,9.34-3.42,9.34-8.35v-1.45Z"/></g><g><path d="M35.31,71.79c18.33-3.02,32.7-18.17,35.71-36.5l1.01-8.81c.25-1.4-.7-3.35-2.47-3.21-13.85,1.08-26.92,5.65-34.19,8.62-3.61,1.48-5.96,4.98-5.96,8.88v28.74c0,1.7,1.53,3,3.21,2.73l2.69-.44Z"/><path d="M79.86,35.29c3.02,18.33,17.39,33.48,35.71,36.5l2.69,.44c1.68,.28,3.21-1.02,3.21-2.73v-28.74c0-3.9-2.35-7.4-5.96-8.88-7.28-2.98-20.34-7.54-34.19-8.62-1.78-.14-2.69,1.83-2.48,3.21l1.01,8.81Z"/><path d="M115.56,79.84c-25.05,4.94-36.68,21.59-36.68,53.11,0,1.58,1.57,2.68,2.89,1.8,11.52-7.77,36.87-28.05,39.48-53.42,.1-3.19-3.89-1.69-5.69-1.49Z"/><path d="M35.32,79.84c25.05,4.94,36.68,21.59,36.68,53.11,0,1.58-1.57,2.68-2.89,1.8-11.52-7.77-36.87-28.05-39.48-53.42-.1-3.19,3.89-1.69,5.69-1.49Z"/></g></svg>