<?xml version="1.0" encoding="UTF-8"?>
<svg id="svg267" xmlns="http://www.w3.org/2000/svg" viewBox="0 0 922 441.83">
  <defs>
    <style>
      .cls-1, .cls-2, .cls-3, .cls-4 {
        fill: #000;
      }

      .cls-1, .cls-3 {
        font-size: 14px;
      }

      .cls-1, .cls-3, .cls-4 {
        font-weight: 700;
      }

      .cls-1, .cls-3, .cls-4, .cls-5 {
        isolation: isolate;
      }

      .cls-1, .cls-4 {
        font-family: Helvetica-Bold, Helvetica;
      }

      .cls-6 {
        letter-spacing: -.02em;
      }

      .cls-7 {
        fill: none;
        stroke: #000;
        stroke-width: .75px;
      }

      .cls-8 {
        stroke: #fff;
        stroke-width: 2.33px;
      }

      .cls-8, .cls-9 {
        fill: #fff;
      }

      .cls-2, .cls-10, .cls-9 {
        stroke-width: 0px;
      }

      .cls-3 {
        font-family: OpenSansRoman-Bold, 'Open Sans';
        font-variation-settings: 'wght' 700, 'wdth' 100;
      }

      .cls-11 {
        letter-spacing: -.07em;
      }

      .cls-12 {
        letter-spacing: -.05em;
      }

      .cls-10 {
        fill: #4fd1d9;
      }

      .cls-4 {
        font-size: 24px;
      }
    </style>
  </defs>
  <path id="path157" class="cls-2" d="M0,0h922v397H0V0Z"/>
  <path id="path159" class="cls-9" d="M1.52,1.55l1.47-.08c304-.02,608,0,912.01,0,1.82,0,3.66-.06,5.48.09.17,2.14.06,4.3.09,6.45v381c-.03,2.15.08,4.31-.09,6.45l-1.47.08c-304,.02-608.01,0-912.01.01-1.82-.01-3.66.06-5.48-.09-.17-2.14-.06-4.3-.09-6.45V8c.03-2.14-.08-4.31.09-6.45Z"/>
  <path id="path161" class="cls-2" d="M503,101h323.1c.22,2.31.1,4.68.13,7,0,56-.01,112,0,168-.26,22.93-.08,46.83-.13,70-.06,2.34.18,4.76-.18,7.07-.97.04-1.94.06-2.9.05-186.28-.04-372.57.05-558.84-.04-.06-17.51-.02-35.03-.02-52.54-22.4-.09-44.85-.02-67.25-.04l-1.08.49c-35.59.02-71.23.01-106.83.01V122.05l.11-.93.95-.11c90.3-.03,180.63,0,270.94-.02,2.16-.36,3.86.68,6,.48,45.28-.04,90.72.05,135.99-.04.02-6.82,0-13.62.01-20.43Z"/>
  <path id="path163" class="cls-9" d="M505.1,103.51c106.26.03,212.54.03,318.8,0,.21,7.8.04,15.67.1,23.49-.05,50.78.09,101.88-.07,152.63-21.94.05-44-.14-65.93.09v2.28c22.09.02,44.18-.03,66.27.02.06,23.08.03,46.2.02,69.28-139.09.04-278.2,0-417.29.02-1.58-.02-3.2.09-4.78-.11-.01-24.02.04-48.14-.02-72.15l-.36-.6c-66.61.01-133.23,0-199.84.01-2.35-.06-4.6.26-6.87-.52-4.34.07-8.68.07-13.02.02,0-5.67-.04-11.34.02-17,3.14-.26,6.53.33,9.59-.33.38-.87.37-1.64,0-2.33-3.62-.66-7.87-.24-11.6-.21-.26,7.27-.05,14.59-.11,21.87l.29.54c4.56.13,9.13-.04,13.69.08,0,6.07.06,12.14-.02,18.21-34.21-.02-68.51.06-102.7-.03-.08-27.55-.01-55.17-.03-82.72,1.59-.08,3.17-.03,4.77-.05v-2c-1.6-.02-3.18.03-4.77-.05.05-29.98-.13-60.33.09-90.27,29.17-.11,58.5-.11,87.67,0,.16.73.23,1.49.2,2.27-.01,26.02-.01,52.12,0,78.15.54.94.82,1.91.82,2.9,3.33,0,6.66,0,9.99,0l.06-1.99c19.63,0,39.28-.03,58.92.01.07,2.7-.02,5.4.02,8.1h2c0-3.38,0-6.75,0-10.12-22.96,0-45.93.02-68.88,0-.38-1.23-.13-2.69-.2-3.97.07-25.06-.12-50.33.09-75.37,29.52-.04,59.15-.1,88.66.03.26,26.26-.06,52.79.16,79.07-.86.18-1.72.37-2.57.57-.06,3.17,0,6.35-.05,9.52.87.17,1.74.33,2.62.47-.13,7.41-.09,14.84-.03,22.25l.95.3c11.94-.04,23.93-.02,35.88,0l.45.32c.11,2.62-.03,5.26.06,7.88.94.08,1.88.08,2.85,0-.09-3.57.28-7.29-.23-10.81-12.55-.36-25.17-.02-37.73-.18-.06-35.69-.01-71.43-.03-107.12-.01-.8.03-1.58.13-2.36,29.58.04,59.16.04,88.74,0,.24,1.78.08,3.62.13,5.41-.06,34.41.12,69.15-.1,103.5-9.64,0-19.3-.05-28.94.02-1.05.21-2.11.41-3.16.6,1.48,2.57.49,6.42.73,9.34l-1.36,1.53,2.83.11c.04-3.02-.05-6.05.02-9.08,10.05-.04,20.1-.04,30.15,0,.09,4.08,0,8.17.02,12.26,23.28.09,46.62.09,69.9,0l.08-1.69c-22.66-.14-45.41-.04-68.07-.06-.38-3.46-.15-7.06-.1-10.55.08-37.2-.06-74.54.07-111.73,22.05-.01,44.11.03,66.16-.02,1.25,1.85-1.37,5.08,2.05,5.14.09-1.69.03-3.39.08-5.09,23.51-.06,47.07-.01,70.59-.03.12,41.05,0,82.63.05,123.74h2c.07-47.65-.13-95.92.1-143.49Z"/>
  <path id="path165" class="cls-2" d="M665,105h2c.02,2,.02,4,0,6h-2c-.02-2-.02-4,0-6Z"/>
  <path id="path167" class="cls-2" d="M665.04,115.98l1.88.16c.18,2.01.07,4.05.08,6.07l-2,.05c-.01-2.1-.04-4.19.04-6.28Z"/>
  <path id="path169" class="cls-2" d="M667.02,128.94c-.43,1.85,1.25,5.53-1.93,4.87-.2-1.91-.09-3.87-.09-5.79.34-1.3,2.54-.56,2.02.92Z"/>
  <path id="path171" class="cls-2" d="M430.52,134.07c.62,0,1.23.03,1.84.08,0,1.71.01,3.43-.08,5.13-.55.15-1.1.27-1.66.38-.14-1.86-.12-3.73-.1-5.59Z"/>
  <path id="path173" class="cls-2" d="M665,139h2c.02,2,.02,4,0,6h-2c-.02-2-.02-4,0-6Z"/>
  <path id="path175" class="cls-2" d="M430.54,145.16c.6,0,1.19.02,1.79.06.03,1.81.03,3.62-.02,5.42-.58.05-1.16.07-1.75.07-.06-1.85-.06-3.7-.02-5.55Z"/>
  <path id="path177" class="cls-2" d="M665,150h2c.02,2,.02,4,0,6h-2c-.02-2-.02-4,0-6Z"/>
  <path id="path179" class="cls-2" d="M430.57,156.38c.58,0,1.15.02,1.73.06.06,1.81.06,3.61.04,5.41-.6.05-1.2.07-1.81.07-.03-1.84-.04-3.69.04-5.54Z"/>
  <path id="path181" class="cls-2" d="M455.12,156.09c8.08.03,16.18-.17,24.26.09-.04,7.87-.06,15.75.01,23.62-5.13-.09-10.26.18-15.39.07-2.94.55-5.88.45-8.85.4-.14-8.06-.09-16.12-.03-24.18Z"/>
  <path id="path183" class="cls-9" d="M456.9,157c6.87-.1,13.78-.16,20.65,0-3.41,3.51-6.78,7.11-10.38,10.43-3.41-3.48-6.99-6.83-10.27-10.44Z"/>
  <path id="path185" class="cls-9" d="M456.01,157.52c3.59,3.45,7.07,7.04,10.58,10.59-3.46,3.63-7.01,7.19-10.58,10.7-.15-7.05-.14-14.24,0-21.29Z"/>
  <path id="path187" class="cls-9" d="M478.48,157.46c0,7.15,0,14.31,0,21.47-3.51-3.65-7.11-7.2-10.66-10.8,2.7-2.73,5.42-5.44,8.09-8.2.83-.85,1.68-1.68,2.57-2.47Z"/>
  <path id="path191" class="cls-2" d="M432.18,167.84c.34,1.6.12,3.37.18,5-.61.06-1.23.09-1.85.09-.01-1.74-.05-3.51.11-5.25.69-.2,1.21-.15,1.56.16Z"/>
  <path id="path193" class="cls-9" d="M467.15,168.82c3.35,2.99,6.33,6.4,9.63,9.45v.91c-6.58.18-13.16.09-19.74.29,2.85-3.82,6.84-7.11,10.11-10.65Z"/>
  <path id="path195" class="cls-2" d="M666.94,173.11c1.4,1.22.61,4.41.67,6.13-1.15.38-2.01.27-2.6-.33.34-2.01-1.25-5.81,1.93-5.8Z"/>
  <path id="path197" class="cls-2" d="M430.51,179.07c.62,0,1.24.03,1.85.08,0,1.7.02,3.41-.09,5.11-.54.14-1.09.27-1.64.38-.15-1.85-.13-3.72-.12-5.57Z"/>
  <path id="path199" class="cls-2" d="M665.01,184.92l2.46-.23c.32,1.84.68,4.8-.46,6.39-3.29-.16-1.63-4.03-2-6.16Z"/>
  <path id="path201" class="cls-2" d="M430.54,190.14c.59,0,1.19.02,1.8.07.02,1.81.02,3.62-.02,5.42-.59.04-1.17.06-1.76.06-.06-1.85-.06-3.7-.02-5.55Z"/>
  <path id="path203" class="cls-2" d="M665.06,196.06l2.43-.11c.31,1.85.49,4.36-.2,6.13-3.65.73-1.93-3.93-2.23-6.02Z"/>
  <path id="path205" class="cls-2" d="M430.56,201.35c.58,0,1.16.02,1.75.07.05,1.8.05,3.61.03,5.41-.6.05-1.2.08-1.81.08-.03-1.85-.04-3.71.03-5.56Z"/>
  <path id="path207" class="cls-2" d="M259.01,202.81l.81.33c.74,2.53,1.16,4.91,3.12,6.85,1.45.95,2.95,1.54,4.01,2.99-1.69-.41-3.26-1.19-4.67-2.21-1.11-1.34-1.96-2.8-3.26-3.99-.05-1.32-.06-2.65,0-3.97Z"/>
  <path id="path209" class="cls-9" d="M269.08,204.06l.74.02c-.01,2.63-.01,5.26,0,7.89l-.73-.07c-.01-2.62-.01-5.23-.02-7.84Z"/>
  <path id="path211" class="cls-2" d="M667.23,206.93c.8,1.75.52,4.22.32,6.1l-2.52-.06c.34-2.01-1.35-6.68,2.2-6.04Z"/>
  <path id="path213" class="cls-2" d="M258.98,206.65c.83,3.09-3.72,5.64-6.21,6.39.69-2.06,3.23-1.91,4.42-3.84.63-.82,1.23-1.67,1.79-2.55Z"/>
  <path id="path215" class="cls-2" d="M189.74,208.77c-.65,3.25-2.69,5.73-5.82,6.88,2.85,1.81,5.28,3.64,5.69,7.23-2.13-1.67-2.37-4.76-5.72-5.84-1-.63-4.45-.37-3.97-2.04,3.43.52,6.5-1.04,8.04-4.12.27-.92.86-1.62,1.78-2.11Z"/>
  <path id="path217" class="cls-2" d="M432.27,212.76c.1,1.69.1,3.39.09,5.09-.61.05-1.23.08-1.85.08-.01-1.77-.03-3.56.09-5.33.59-.06,1.14-.01,1.67.16Z"/>
  <path id="path219" class="cls-2" d="M101.22,214.12c1.95-.1,4.6-.47,6.4.19.12.93-.09,1.49-.63,1.69-1.86-.06-3.89.22-5.7-.18l-.07-1.7Z"/>
  <path id="path221" class="cls-2" d="M112.78,214c2.08,0,4.16-.04,6.24.04l-.11,1.91c-2.03.12-4.07.05-6.1.05l-.03-2Z"/>
  <path id="path223" class="cls-2" d="M124,214c2-.02,4-.02,6,0v2c-2,.02-4,.02-6,0v-2Z"/>
  <path id="path225" class="cls-2" d="M135,214c2-.02,4-.02,6,0v2c-2,.02-4,.02-6,0v-2Z"/>
  <path id="path227" class="cls-2" d="M146.22,214.12c1.95-.1,4.6-.46,6.4.19.12.93-.09,1.49-.63,1.69-1.86-.06-3.89.22-5.7-.18l-.07-1.7Z"/>
  <path id="path229" class="cls-2" d="M157.78,214c2.08,0,4.16-.04,6.24.04l-.11,1.9c-2.03.13-4.07.06-6.1.06l-.03-2Z"/>
  <path id="path231" class="cls-2" d="M169,214c2-.02,4-.02,6,0v2c-2,.02-4,.02-6,0v-2Z"/>
  <path id="path233" class="cls-2" d="M666.97,218.05c1.26,1.36.76,4.59.5,6.31l-2.46-.31c.37-2.05-1.29-5.96,1.96-6Z"/>
  <path id="path235" class="cls-2" d="M180.04,224.37c3.29-.06,6.59-.04,9.88,0,.1.84.12,1.7.08,2.56-2.65.06-5.32-.06-7.97.04-.03,6.96-.06,13.95.02,20.92l.3.68c3.69.43,7.5,2.75,8.33,6.58-1.61-1.05-2.33-2.84-3.93-3.92-1.8-1.47-4.41-1.48-6.59-2.4-.36-7.99-.11-16.4-.12-24.45Z"/>
  <path id="path237" class="cls-2" d="M430.52,224.06c.61.01,1.22.03,1.83.09,0,1.56,0,3.12,0,4.68-.61.07-1.23.1-1.85.09-.01-1.62-.01-3.24,0-4.86Z"/>
  <path id="path239" class="cls-9" d="M181.38,225.16c2.5-.05,5.01-.01,7.52-.05l-.04.65c-2.66-.04-5.31-.02-7.98.02l.5-.62Z"/>
  <path id="path241" class="cls-2" d="M665.01,229.93l2.45-.26c.3,1.78.73,4.87-.47,6.35-3.27-.1-1.61-4-1.98-6.09Z"/>
  <path id="path243" class="cls-2" d="M320.82,233.11c.45,2.2-.33,3.87,1.27,5.79.97,2.36,3.15,2.45,4.59,4.19-3.3.19-5.15-3.02-6.48-5.55-1.23,2.09-3.75,6.05-6.6,5.55,1.22-1.55,3.45-1.96,4.49-4.02,1.65-1.85.51-4.94,2.73-5.96Z"/>
  <path id="path245" class="cls-9" d="M309.07,234.04l.85-.04c0,2.99.02,5.98-.02,8.97l-.85.18c-.02-3.04-.02-6.08.02-9.11Z"/>
  <path id="path247" class="cls-2" d="M430.54,235.12c.59,0,1.19.02,1.8.07.02,1.81.02,3.61-.03,5.42-.58.04-1.16.06-1.75.06-.06-1.84-.06-3.7-.02-5.55Z"/>
  <path id="path249" class="cls-2" d="M665.04,241.04l2.47-.07c.27,1.86.5,4.35-.26,6.1-3.59.68-1.88-3.98-2.21-6.03Z"/>
  <path id="path251" class="cls-2" d="M667.26,251.93c.75,1.75.52,4.24.25,6.1l-2.47-.08c.33-2.04-1.38-6.71,2.22-6.02Z"/>
  <path id="path253" class="cls-9" d="M181.01,259.08c3.33,0,6.66,0,9.99.01l-.02.84c-3.32.03-6.65.03-9.97,0v-.85Z"/>
  <path id="path255" class="cls-2" d="M666.99,262.98c1.2,1.5.77,4.57.48,6.37l-2.46-.29c.37-2.09-1.29-5.98,1.98-6.08Z"/>
  <path id="path257" class="cls-2" d="M502.45,269.9l2.55.08c.19,2.95-.35,6.46.25,9.28,53.17-.04,106.34-.04,159.5,0,1.1-2.34-1.57-5.19,2.76-4.61.32,1.47.12,2.96.31,4.44,8.99.38,18.25-.01,27.27.19l.94.5-.03,1.43-.83.74c-10.49.12-21.01-.08-31.51.09-.05,5.28-.03,10.57.01,15.85-24.85.07-49.75-.02-74.61.05.01-5.26.07-10.53-.01-15.79-1.98-.27-4.05-.15-6.05-.17-25.92.06-52.12-.13-77.99.09-.02,1.64,0,3.29-.01,4.93l-2.58.04c-.11-5.69-.16-11.45.03-17.14Z"/>
  <path id="path259" class="cls-9" d="M196.06,280.27c22.22.01,44.51-.02,66.72.02.04,6.12.05,12.26-.01,18.39-22.22.04-44.49,0-66.71.02-.1-6.14-.08-12.29,0-18.43Z"/>
  <path id="path261" class="cls-9" d="M264.86,280.26c16.97.04,33.97-.02,50.94.03.07,23.64.01,47.34.03,70.99-16.64.07-33.31.05-49.95.01-.06-17.23.1-34.8-.07-51.98-.57-.67-.98-1.39-1.22-2.16.22-5.36-.32-11.73.27-16.89Z"/>
  <path id="path263" class="cls-9" d="M317.85,280.26c27.44.02,54.89.03,82.33-.01l.24.62c-.03,23.47.03,46.97-.02,70.44-27.59.02-55.19-.01-82.77.02v-70.43l.22-.64Z"/>
  <path id="path265" class="cls-9" d="M660.03,281.98c.66-.04,1.27.03,1.84.23-.08,4.67-.01,9.34-.05,14.02-23.66.08-47.4.03-71.07.02-.01-4.73-.05-9.47.02-14.2,23.03-.17,46.21-.02,69.26-.07Z"/>
  <path id="path433" class="cls-2" d="M665,162h2c.02,2,.02,4,0,6h-2c-.02-2-.02-4,0-6Z"/>
  <g id="text8963" class="cls-5">
    <text class="cls-1" transform="translate(117.02 165.27)"><tspan class="cls-12" x="0" y="0">V</tspan><tspan x="8.57" y="0">anda</tspan></text>
    <text class="cls-1" transform="translate(118.98 182.77)"><tspan x="0" y="0">North</tspan></text>
  </g>
  <g id="text9739" class="cls-5">
    <text class="cls-1" transform="translate(117.51 248.66)"><tspan class="cls-12" x="0" y="0">V</tspan><tspan x="8.57" y="0">anda</tspan></text>
    <text class="cls-1" transform="translate(118.31 266.16)"><tspan x="0" y="0">South</tspan></text>
  </g>
  <g id="text18353" class="cls-5">
    <text class="cls-1" transform="translate(562.68 205.77)"><tspan class="cls-6" x="0" y="0">W</tspan><tspan x="12.97" y="0">est</tspan></text>
  </g>
  <g id="text18543" class="cls-5">
    <text class="cls-1" transform="translate(729.46 205.77)"><tspan x="0" y="0">East</tspan></text>
  </g>
  <g id="text21495" class="cls-5">
    <text class="cls-3" transform="translate(412.72 331.29)"><tspan x="0" y="0">Registration</tspan></text>
  </g>
  <g id="text21915" class="cls-5">
    <text class="cls-1" transform="translate(522.83 342.09)"><tspan class="cls-12" x="0" y="0">T</tspan><tspan x="7.79" y="0">-Shirts</tspan></text>
  </g>
  <g id="text22681" class="cls-5">
    <text class="cls-1" transform="translate(601.67 341.89)"><tspan x="0" y="0">Sponsors</tspan></text>
  </g>
  <g id="text50356" class="cls-5">
    <text class="cls-1" transform="translate(199.64 167.96)"><tspan x="0" y="0">Cattleya</tspan></text>
  </g>
  <g id="text51320" class="cls-5">
    <text class="cls-1" transform="translate(290.54 167.96)"><tspan x="0" y="0">Calypso</tspan></text>
  </g>
  <g id="layer2">
    <rect id="rect53724" class="cls-8" x="590.15" y="126.41" width="154.92" height="30.62"/>
    <g id="text54137" class="cls-5">
      <text class="cls-4" transform="translate(26.74 352.14)"><tspan x="0" y="0">Open Spaces</tspan></text>
    </g>
    <g id="text57935" class="cls-5">
      <text class="cls-4" transform="translate(370.88 57.56)"><tspan class="cls-11" x="0" y="0">T</tspan><tspan x="12.89" y="0">alks</tspan></text>
    </g>
    <g id="text59265" class="cls-5">
      <text class="cls-4" transform="translate(595.38 47.4)"><tspan x="0" y="0">Keynotes &amp;</tspan></text>
      <text class="cls-4" transform="translate(570.29 77.4)"><tspan x="0" y="0" xml:space="preserve"> Lightning </tspan><tspan class="cls-11" x="122.62" y="0">T</tspan><tspan x="135.52" y="0">alks</tspan></text>
    </g>
  </g>
  <g id="layer1">
    <g id="text44762" class="cls-5">
      <text class="cls-4" transform="translate(573.17 151.75)"><tspan x="0" y="0">Orchid Ballroom</tspan></text>
    </g>
  </g>
  <path id="path85098" class="cls-7" d="M63.35,327.88l26.94-156.33"/>
  <path id="path85102" class="cls-7" d="M397.29,65.46c-167.04,55.3-165.91,55.3-165.91,55.3"/>
  <path id="path85106" class="cls-7" d="M318.28,121.9l79.01-56.43"/>
  <path id="path85108" class="cls-7" d="M528.07,102.16l-130.78-36.7"/>
  <path id="path85110" class="cls-7" d="M730.59,102.15l-333.3-36.69"/>
  <path id="path85112" class="cls-7" d="M666.03,80.94l.11,24.06"/>
  <path id="path419" class="cls-7" d="M63.35,327.88l26.29-74.08"/>
  <g>
    <g>
      <circle class="cls-10" cx="290.74" cy="302.45" r="11.25"/>
      <polygon class="cls-9" points="284.59 307.33 282.87 297.58 284.36 297.58 285.44 304.27 286.76 297.58 288.49 297.58 289.75 304.39 290.85 297.58 292.32 297.58 290.57 307.33 289.03 307.33 287.59 300.04 286.16 307.33 284.59 307.33"/>
      <path class="cls-9" d="M295.99,305.93c-.72,0-1.31-.63-1.31-1.39v-4.18c0-.77.59-1.39,1.31-1.39s1.31.62,1.31,1.39h1.31c0-1.54-1.18-2.79-2.62-2.79s-2.62,1.25-2.62,2.79v4.18c0,1.54,1.18,2.79,2.62,2.79s2.62-1.25,2.62-2.79h-1.31c0,.77-.59,1.39-1.31,1.39Z"/>
    </g>
    <g>
      <circle class="cls-10" cx="290.74" cy="331.25" r="11.25"/>
      <polygon class="cls-9" points="296.99 335.38 296.06 336.37 293.84 332.93 291.11 332.93 291.11 331.38 294.11 331.38 294.11 329.84 291.11 329.84 291.11 326.75 289.62 326.75 289.62 334.47 293.03 334.47 295.8 338.75 297.87 336.65 296.99 335.38"/>
      <circle class="cls-9" cx="290.37" cy="324.13" r="1.5"/>
      <path class="cls-9" d="M289.76,337.58c-1.71,0-3.09-1.39-3.09-3.09,0-1.14.62-2.14,1.55-2.67v-1.69c-1.8.64-3.09,2.35-3.09,4.37,0,2.55,2.08,4.63,4.64,4.63,1.46,0,2.76-.67,3.61-1.73l-.92-1.38c-.53.93-1.54,1.56-2.69,1.56Z"/>
    </g>
  </g>
</svg>