<?xml version="1.0" encoding="UTF-8"?>
<svg id="Layer_1" data-name="Layer 1" xmlns="http://www.w3.org/2000/svg" viewBox="0 0 922 584.56">
  <defs>
    <style>
      .cls-1 {
        fill: none;
      }

      .cls-1, .cls-2, .cls-3, .cls-4 {
        stroke-width: 0px;
      }

      .cls-5 {
        stroke: #000;
        stroke-miterlimit: 10;
      }

      .cls-5, .cls-6, .cls-2, .cls-7, .cls-8 {
        fill: #000;
      }

      .cls-6 {
        font-size: 14px;
      }

      .cls-6, .cls-7, .cls-8 {
        font-family: OpenSansRoman-Bold, 'Open Sans';
        font-variation-settings: 'wght' 700, 'wdth' 100;
        font-weight: 700;
      }

      .cls-3 {
        fill: #4fd1d9;
      }

      .cls-7 {
        font-size: 24px;
      }

      .cls-4 {
        fill: #fff;
      }

      .cls-8 {
        font-size: 9px;
      }
    </style>
  </defs>
  <path class="cls-2" d="M0,0h922v436H0V0Z"/>
  <path class="cls-4" d="M1.45,1.45c1.51-.15,3.04-.08,4.55-.09h909c1.84.02,3.71-.08,5.55.09.1.84.15,1.69.13,2.55-.02,143,0,286-.01,429.01l-.12,1.54-1.54.09c-304.34,0-608.67,0-913.01,0-1.51-.01-3.04.06-4.55-.09-.2-1.5-.11-3.04-.13-4.55,0-141,0-282,0-423,.03-1.84-.11-3.72.12-5.55Z"/>
  <path class="cls-2" d="M199.01,101.02l.97-.31c116.68.01,233.36.02,350.04,0l1.03.31.43.95c-.03,21.01-.04,42.02,0,63.03.14,1.7-.44,3.3-.37,5,.01,16.67,0,33.33,0,50,.08,1.51-.18,3.19.23,4.65,1.44.51,3.15.4,4.66.42,20.33-.01,40.67,0,61-.01,1.71-.07,3.28-.6,5-.51,53.67.02,107.33,0,161,0,2.69.04,5.34-.18,8,.29,14.66.02,29.34,0,44,0,.88-.04,1.73.15,2.55.58-.02,21.04-.02,42.09,0,63.14l-1.54.48c-14.66.21-31.33-.2-45.73.21-.61.7-.86,1.61-.76,2.74.18,6.94-.39,14.2.45,21-.04,20,0,40.01-.02,60.01-.03,1.29-.68,1.96-1.94,2-69.33-.03-138.67,0-208.01-.01-2.06-.05-4.01.26-6-.43-65.16-.03-130.38-.02-195.56-.01-.22-.82-.31-1.67-.26-2.56.09-30.99-.17-64.08.13-94.79,1.29-.74,3.23-.28,4.69-.41,27.51-.08,57.57.18,84.75-.13l.41-.66c.28-7.95.03-16.05.12-24.02l-.37-.84-.9-.33c-58.67,0-117.34,0-176.01,0-1.68.07-3.31.3-5,.19-57.66.01-115.35-.04-173.01.02l-.83-.19c-.39-1.54-.06-3.25-.16-4.84.01-18.92-.04-38.11.02-57l.3-.69c.83-.27,1.73-.37,2.68-.3,18.33.01,36.67.01,55,0,2.19-.04,4.41.17,6.59.29.65,3.21.34,7.17.19,10.48-.68.28-1.46.25-2.34-.11-.68-2.07,1.06-7.33-1.42-8.1-18.67.04-37.35.02-56.02,0-1.11-.13-2.01.07-2.71.6l-.14.82c.09,18.39-.17,38.57.13,56.72.84.27,1.75.36,2.72.28,26.33,0,52.67,0,79,0,.95.08,1.79-.08,2.52-.46-.06-17.36-.06-34.72,0-52.08-3.78-1.12-8.45.02-12.39-.6-.42-1.54.21-2.94-.65-4.47-.5-.94-.51-1.91-.02-2.92,4.18.03,8.38.05,12.56,0,.77-.34,1.07-1.16.91-2.47-.15-6.65.28-13.39-.29-20,.1-21.33.03-42.68.03-64.02l.34-.96Z"/>
  <path class="cls-4" d="M201.2,103.2l.8-.2h84l.8.2.2.8c-.01,17.67,0,35.34,0,53.01l-.2.98-.78.44c-4.19-.04-8.38,0-12.57.02-.97,3.19.27,7.24-.62,10.5-.68.28-1.48.11-2.42-.5-.93,2.05,3.41,1.44,4.43,1.38.34-2.8-.4-6,.33-8.73,3.74-.17,7.9-.29,11.63.1.54,2.17-.11,4.6.29,6.79l.89.38c17,0,34.74-.02,51.67.01.52,1.32,1.3,1.79,2.34,1.4-.96-3.24-.79-8.18-.11-11.58-1.02-.43-1.74.07-2.17,1.48-3.23.42-6.64-.19-9.86.3-1.1,1.31-.43,3.86-.43,5.51-.67.42-1.48.59-2.42.51-12.17-.13-25.86.27-37.8-.2l-.2-.8c.01-20.33.01-40.67,0-61l.2-.8.8-.2h83c.96-.08,1.87.02,2.71.3.17,17.7.18,36.7,0,54.4-4.89.81-10.44-.11-15.41.59-.61,3.39.39,7.28-.55,10.58-.91-.41-1.74-.63-2.48-.64-.16,1.49,3.62,1.73,4.59,1.56-.84-3.22-.2-6.98-.44-10.37.47.41.99.76,1.55,1.06,4.2-.02,8.39-.02,12.58,0,.67,2.09-.12,4.48.51,6.54l.93.38c16.35-.03,32.69-.03,49.04,0l1.06-.36.51-1.02-.56-.84c-2.86-.52-5.99.19-8.83-.37-.29-.87-.29-1.73,0-2.6,3.1-.61,6.59.24,9.66-.41.22-.76.47-1.22.78-1.37-.21,3.1.48,6.75-.59,9.4,1.18.32,2.45.31,3.82-.03.16-.51-.41-.85-1.7-1-.76-2.96.08-6.5-.41-9.54l-.77-.26c-4.1,1.88-8.48.51-12.91,1.09-.41,1.52.21,3.22-.3,4.7l-.78.22c-11.85-.13-25.16.26-36.8-.2l-.2-.8v-60l.2-.8.8-.2h83l.8.2.2.8c0,18-.01,36,0,54l-.22.79c-5.03.58-10.55-.22-15.58.41-.41,3.07.38,6.62-.37,9.59-1.34.15-1.92.49-1.76,1.01,1.36.34,2.63.35,3.81.04-.81-2.9-.19-6.22-.46-9.38,5.12,1.34,11.15-.05,16.42.75.72,1.98-.1,4.42.47,6.47,1.01.46,3.85.57,3.3-1.22-.46.16-.93.27-1.41.31-.87-2.87-.08-6.55-.36-9.57-1.22-.11-1.83-.51-1.84-1.2.01-17.33.01-34.67,0-52l.2-.8.8-.2h82l.8.2.21.8c-.01,20-.01,40,0,60l-.21.8c-13.15.47-28.39.07-41.8.2-.94.08-1.75-.09-2.44-.5-.04-1.7.99-4.71-1.54-4.95-3.79.28-8.39-.49-11.95.41-.44,1.57.16,3.27-.31,4.8-1.32.35-3.27.39-4.59.08-.63-2.09-.15-4.64-.25-6.84.02-.98-.57-1.26-1.78-.81.76,2.88.22,6.24.39,9.3-1.1.33-1.59.75-1.47,1.25,1,.35,2.09.24,3.27-.31,20.61.04,41.6,0,62.24.02.72.61,1.02,1.46.9,2.55-.05,6.01.06,12.02-.05,18.02-.35.75-1.15,1.03-2.42.87-86.23,0-172.8-.04-259,0l-.73.3c-.05,1.25-.2,2.44-.45,3.57-3.82.61-8.02-.08-11.89.34l-.6.91.55.97c3.85.5,7.95-.19,11.78.35.5,2.1.13,4.49.25,6.66-.11,15.08.2,31.92-.16,46.75l-.75.23c-27.66.04-55.34,0-83,.02-.95.07-1.78-.08-2.51-.47.09-19.01.09-38.05,0-57.06.73-.39,1.56-.55,2.51-.47,12.17.14,25.85-.27,37.8.2.15,1.24.25,2.49.31,3.78l.87.38c3.62-.17,7.64.41,11.12-.31.77-1.19.78-4.89,0-6.07l-1.08-.29c-16.77-.02-34.01.1-50.72-.06-.62-.63-.87-1.5-.76-2.63.01-5.33.02-10.67,0-16-.12-1.06.18-1.91.92-2.53,17.03,0,34.08.06,51.12-.02.31.73.51,1.52.59,2.38,1.01.07,5.37.67,4.42-1.38-.94.62-1.74.78-2.42.49-.73-3.13.02-6.72-.36-9.93-.64-.7-1.33-.45-2.08.75-3.6.74-7.88-.3-11.45.52-.65,1.36.05,3.12-.49,4.54l-.79.24h-38l-.8-.25-.2-.81v-60l.2-.8Z"/>
  <path class="cls-2" d="M475.18,157.17c1.39-.73,1.12,3.57.2,3.42-.64-1.02-.71-2.16-.2-3.42Z"/>
  <path class="cls-2" d="M351.69,158.34c.79,1.02.86,4.6-1.29,3.25-.23-.71.5-3.4,1.29-3.25Z"/>
  <path class="cls-2" d="M263.25,159.23c1.95-.81,1.92,1.31,1.53,2.57-2.06,1.02-2.03-1.26-1.53-2.57Z"/>
  <path class="cls-2" d="M438.17,159.16c1.43-.53,1.02,2.9.46,3.44-.97,0-.89-2.84-.46-3.44Z"/>
  <path class="cls-4" d="M331.26,162.26c2.24-.43,6.27-.37,8.55-.05.45,1.13.45,2.33.03,3.58-2.42.31-6.21.39-8.58-.05-.26-1.16-.26-2.32,0-3.48Z"/>
  <path class="cls-4" d="M493.2,162.2c2.75-.35,6.06-.29,8.83-.02,1.39,1.93.09,3.14-2.03,2.82-2.22-.12-4.64.25-6.8-.2-.29-.87-.29-1.73,0-2.6Z"/>
  <path class="cls-4" d="M243.94,162.92c2.32-.98,5.55-.19,8.11-.47,1.92.93,1.15,3.18-1.05,2.64-1.93-.43-6.65.91-7.55-1.09l.49-1.08Z"/>
  <path class="cls-2" d="M473.82,163.23c.41,1.23-1.09,2.88-2.37,2.38-.11-.6,1.69-2.91,2.37-2.38Z"/>
  <path class="cls-2" d="M477.19,163.24c.98-.34,2.17,1.48,1.45,2.34-.77.02-1.86-1.55-1.45-2.34Z"/>
  <path class="cls-2" d="M349.38,164.4c1.18.25-.25,3-1.27,2.4-.19-.84.24-1.64,1.27-2.4Z"/>
  <path class="cls-2" d="M354.71,166.77c-.81.18-1.37-.08-1.65-.79-.27-2.07,2.02-.05,1.65.79Z"/>
  <path class="cls-2" d="M436.79,165.26c.43.73-.71,2.62-1.49,2.37-.49-.78.57-2.77,1.49-2.37Z"/>
  <path class="cls-2" d="M440.24,165.3c.85-.3,1.84,1.65,1.49,2.37-.9.26-2.14-1.52-1.49-2.37Z"/>
  <path class="cls-2" d="M344.08,168.19c.96-.19,1.45-.04,1.49.43-1.19.56-1.69.42-1.49-.43Z"/>
  <path class="cls-2" d="M254.24,187.27c.97-.48,3.14.28,3.4,1.32l-1.47.39c-.61,2.52-.18,5.42-.24,8.02.04,1.01-.57,1.28-1.82.82.72-3.26.51-7.2.13-10.55Z"/>
  <path class="cls-2" d="M273.77,187.27c-.46,3.29-.66,7.38.14,10.55-1.25.45-1.87.17-1.84-.82-.07-2.61.37-5.49-.23-8.02l-1.47-.41.03-.22c.88-.93,2.1-1.51,3.37-1.08Z"/>
  <path class="cls-4" d="M175.67,189.33c.09,2.76.06,5.56,0,8.31-1.28.2-.6-2.9-.77-3.64.21-.94-.67-4.71.76-4.67Z"/>
  <path class="cls-2" d="M260.6,189.37c.79.2,2.25,1.45,1.99,2.31-1.2.57-3.1-1.54-1.99-2.31Z"/>
  <path class="cls-2" d="M267.4,189.36c1.12.77-.76,2.9-1.97,2.3-.2-.9,1.17-2.07,1.97-2.3Z"/>
  <path class="cls-4" d="M243.5,190.55c2.63.16,5.35.18,7.98,0,.04.97.04,1.94,0,2.91-2.64-.16-5.35-.15-7.99,0-.61-.97-.61-1.94,0-2.91Z"/>
  <path class="cls-4" d="M188.21,191.2c2.7-.33,6.96-.33,9.67.01.52.86.52,1.72,0,2.58-2.76.33-6.93.34-9.68,0-.29-.86-.29-1.72.01-2.59Z"/>
  <path class="cls-4" d="M290.58,190.02l1.42.5c58.32.03,116.71.03,175.03,0l.82.46c.21.89.36,1.79.48,2.7,2.21.51.93-1.42,1.76-2.7l.88-.46c25.69.03,51.37.03,77.06,0l1.01.44.44,1.01c-.04,30.53,0,61.05-.02,91.58,22.49.08,45.04.02,67.54.03,6.67,1.12,14.03.17,20.8.67.79,2.63,0,5.89.37,8.63.65.41,4.39.3,4.45-.53-.8-.22-1.62-.4-2.45-.54-.73-3,.02-6.53-.35-9.62-5.69-.58-11.93.2-17.62-.39l-.21-.8c.02-17.67.02-35.33,0-53l.21-.8.8-.2h81c.95-.08,1.79.08,2.51.47-.1,20.01-.05,40.04-.03,60.05l-.96.95c-10.35-.02-20.7-.08-31.05.03-1.02-1.78,0-4.4-.7-6.27-5.26-.38-11.27-.44-16.5.09-.55,3.04.28,6.5-.44,9.47-1.29.14-1.85.48-1.69,1.01,2,.21,4.72,1.25,4.93-1.69l.92-.36c15.39-.06,31.44.13,46.75-.1,2.3-1.32.2-6.31,1.39-8.44,4.18-.37,8.71-.3,12.91-.04,1.08,2.17.24,5.84.45,8.36,1.18.73,2.92.53,4.19.14.06-.39-.44-.69-1.5-.89-.77-2.97.05-6.56-.4-9.63-4.6-.71-11.77.26-16.29-.62.05-17.35.06-34.71-.01-52.07.73-.38,1.57-.54,2.52-.46h75l.8.2.21.8c-.02,19.67-.02,39.33,0,59l-.21.8c-8.91.33-18.69.32-27.6,0-.56-2.45.15-5.2-.35-7.65-5.21-.6-11.22.44-16.38-.68-.99,3.18.24,7.14-.64,10.36-.81-.18-1.62-.31-2.42-.4.85,1.74,2.84,1.79,4.49,1.37-.92-2.78-.28-6.29-.5-9.36,3.84,1.34,8.6.03,12.64.73.77.8.78,4.86,0,5.66-3.65.45-7.45-.06-11.12.24l-.52.93.53.92c13.6.25,28.41-.07,42.07.16l.73.24c.3,6.01.04,12.58.13,18.68-.1,1.8-1.47,1.64-2.86,1.64-12-.02-24,0-36-.01-1.71-.12-3.31.24-5,.37-.63.22-4.01-.35-3.67.77,1.08.23,2.15.46,3.24.67-.18,3.05.43,6.64-.49,9.39,4.9.45,10.13.27,15.07.17,1.16-2.15.39-5.97.42-8.49.68-.42,1.49-.59,2.43-.51h24c.95-.08,1.8.07,2.54.45-.05,19.69,0,39.39-.02,59.08-25.99.14-52.1.04-78.1.05-.48-.72-.68-1.58-.61-2.58.02-15.33,0-30.68.01-46.01l.28-1.05.85-.52c4.85.05,9.71-.02,14.57.05l.98-.94c-.01-2.86-.02-5.71-.03-8.57.34-.68,1.07-1.09,2.19-1.22v-.42c-1.21-.34-3.23-.49-4.44-.1-.45,2.74.36,5.92-.39,8.57-4.43.34-9.26.35-13.69,0-.8-2.59.05-5.82-.44-8.53-.71-.53-1.61-.74-2.7-.63-14.99.02-30.01-.02-45,.02-1.92.48-3.9.18-5.78.6-.13.47.39.79,1.58.97.8,2.95-.12,6.52.47,9.55,5,.85,10.84.58,15.91.29,1.19-2.13.44-6.03.42-8.54.66-.43,1.47-.6,2.4-.52h28c.95-.08,1.79.08,2.52.46-.09,19.68-.06,39.38-.02,59.06-28.29.16-56.77.03-85.08.06-.35-.77-.49-1.63-.42-2.58v-47l.21-.79c5.97-.59,12.66.19,18.61-.37.37-3.09-.39-6.65.35-9.65.69-.29,1.49-.18,2.41.34.71-2.04-3.36-1.57-4.41-1.36-.36,2.75.39,5.96-.34,8.62-5.41.47-11.33.07-16.83.21-2.08-.2-1.98-.22-3.71.65-.05-3.08-.35-6.34.45-9.32-1.41-.3-2.44.03-3.31,1.16l1.41.55c.76,2.72-.08,5.88.45,8.66.79.2,1.57.4,2.35.6.01,16.64.22,33.61-.11,50.21-13.69,0-27.38-.04-41.08.02-.38-.73-.53-1.58-.45-2.53-.1-8.71.21-17.34,0-26,.14-7.06-.27-14.87.21-21.79,7.29-.57,15.33.17,22.63-.37.32-2.87-.37-6.06.32-8.87l1.54-.31c.07-1.09-2.43-1.78-3.26-1.22-.89,2.57.23,5.78-.61,8.35-7.44.35-15.39.32-22.85.02-1.04-2.53-.19-6.49-.45-9.34-1.79-.25-2.55.49-4.12,1.08.98-.12,1.86,0,2.66.37.95,2.81.19,6.52.4,9.54,1.08.09,1.57.6,1.49,1.54,0,15-.01,30,0,45-.08,1.53.21,3.27-.28,4.73-5.32.46-11.25.06-16.68.2-8.21-.39-17.48.54-25.58-.35-.35-1.46-.16-3.08-.21-4.58,0-14.67,0-29.33,0-44-.04-.88.03-1.74.21-2.58,7.58-.88,15.62.59,23.13-.88-.11-2.31.13-4.65-.23-6.93.29-1.03,1.61-1.72,1.92-2.08-.38-.49-2.1-1.18-2.77-1.08-.23,2.73.53,6.09-.4,8.62l-1.03.44c-8.87-.08-17.73,0-26.6-.05-1.35,2.73,2.87,1.23,4.14,1.97.38,3.79.06,7.74.17,11.57-.11,13.04.22,26.62-.17,39.58-.8.3-1.66.41-2.58.35-49,0-98-.02-146.99.01l-.78-.19-.35-.75c-.14-12.97-.03-26.02-.06-39.01l.33-.83.84-.3c29.33,0,58.68,0,88.01,0l.72-.14c.29-22.31.04-47.07.15-69.72-.04-5.56.13-11.27-.22-16.8-2.35-1.77-1.03,2.74-1.82,3.66l-.82.33h-177.02l-.78-.33-.21-.86c.03-18-.05-36.01.04-54.02l-.78-1.34c.64-.98,1.41-1.85,2.32-2.62Z"/>
  <path class="cls-2" d="M184.3,192.28l.45-.07c.98,2.56-3.2,5.64-5.33,6.33l.04-1.05c2.29-1.01,4.14-2.78,4.84-5.21Z"/>
  <path class="cls-2" d="M263.46,194.46h1.08c.42.96.45,2.02.09,3.18-1.95.56-1.44-2.09-1.17-3.18Z"/>
  <path class="cls-2" d="M468.45,199.44h1.1c.31,1.64.28,3.59.12,5.25-1.07.41-1.58.18-1.54-.69.05-1.47-.18-3.17.32-4.56Z"/>
  <path class="cls-2" d="M469.67,211.29c.15,1.68.19,3.6-.13,5.25-2.2.75-1.15-3.39-1.41-4.54-.01-.95.5-1.19,1.54-.71Z"/>
  <path class="cls-2" d="M469.67,222.33c.15,1.66.18,3.59-.12,5.23-1.89.46-1.22-1.35-1.42-2.56.19-1.3-.72-3.55,1.54-2.67Z"/>
  <path class="cls-4" d="M551.27,227.13c1.1-1.02,3.31-.41,4.73-.57,20.33,0,40.67.01,61,0,1.08-.12,1.93.18,2.54.89.01,18.03.01,36.08,0,54.11-.78.38-1.62.56-2.54.53h-63c-.95.04-1.84-.1-2.67-.41-.21-.85-.28-1.74-.22-2.67.12-16.93-.2-35.12.16-51.87Z"/>
  <path class="cls-4" d="M789.46,227.43c.6-.73,1.45-1.03,2.54-.91,14.34.03,28.69-.02,43.02.02l.73.5c.35,19.18.04,39.62.15,58.96.02,1.07-.61,1.56-1.9,1.45-14,.02-28-.01-42,.02-1.08.11-1.93-.19-2.54-.91-.01-19.71-.01-39.42,0-59.13Z"/>
  <path class="cls-2" d="M468.38,233.36l1.19.07c.28,1.55.27,3.62.04,5.19l-1.28.06c-.31-1.5-.32-3.84.05-5.32Z"/>
  <path class="cls-2" d="M492.45,234.44c1.42-.43,3.07-.2,4.55-.3,10.33,0,20.67-.03,31,0,.9-.07,1.75.03,2.54.3-.07,12.36-.05,24.73,0,37.1-1.44.37-3.04.23-4.53.3-10.33-.02-20.67.02-31-.02-.89.03-1.73-.06-2.55-.28.02-12.37.04-24.74,0-37.11Z"/>
  <path class="cls-4" d="M495.05,235.18l.94-.34c10.34,0,20.68,0,31.02,0l.93.27-.03.71c-5.31,5.35-10.67,10.69-16.01,16.02h-.72c-5.47-5.16-10.68-10.7-16.11-15.93l-.02-.73Z"/>
  <path class="cls-4" d="M493.96,237.11l.89-.09c5.03,4.98,10.03,10,15.03,15.02l.5.94-.44.84c-5.01,4.99-10.01,10.04-15.04,15l-.93.15-.49-.93c.02-10.03.02-20.05,0-30.08l.48-.85Z"/>
  <path class="cls-4" d="M528.04,237.13l.98-.14.47.98c-.03,10.02-.02,20.04,0,30.06l-.46.83-.85.09c-5.05-5.26-10.93-10.42-15.57-15.94l.37-.88c5.04-4.97,10.01-10.07,15.06-15Z"/>
  <path class="cls-4" d="M511.05,254.1h.8c5.45,5.2,10.7,10.69,16.1,15.96l.02.74-.96.32c-10.34.02-20.68.02-31.02,0l-.96-.26v-.71c5.28-5.4,10.68-10.72,16.02-16.05Z"/>
  <path class="cls-4" d="M380.35,278.37c28.75-.12,58.52-.08,87.31-.01.47.73.65,1.61.56,2.64-.01,16,0,32.01,0,48.01l-.35.87-.86.34h-86.02l-.85-.35-.32-.86c-.01-16,0-32.01-.01-48.01-.09-1.01.09-1.89.54-2.63Z"/>
  <path class="cls-2" d="M734.09,280.98l-.24,1.93h-.7c-.66-.93,0-4.56.94-1.93Z"/>
  <path class="cls-2" d="M648.22,282.22c1.25-.67,1.24,3.79.13,3.4-.6-1.1-.64-2.23-.13-3.4Z"/>
  <path class="cls-4" d="M658.22,283.27h.55c.65,2.33.47,6.05.12,8.47l-.63.03c-.28-2.62-.21-5.86-.04-8.5Z"/>
  <path class="cls-4" d="M660.07,284.22c3.57-.23,8.04-.58,11.5.21.04,1.36.03,2.72-.06,4.07-3.68-.09-7.37-.08-11.05-.01-.9-1.02-.92-3.08-.39-4.27Z"/>
  <path class="cls-2" d="M731.86,286.18c.43.78-.75,2.37-1.49,2.39-.75-.86.48-2.8,1.49-2.39Z"/>
  <path class="cls-2" d="M736.76,287.9c-.77.2-1.33-.11-1.68-.92-.28-2.06,2.15.07,1.68.92Z"/>
  <path class="cls-2" d="M647.56,288.38c.13.72-1.57,2.8-2.35,2.35-.32-1.2,1.04-2.87,2.35-2.35Z"/>
  <path class="cls-2" d="M650.25,288.31c.89-.3,2.08,1.52,1.47,2.33-.81.22-1.86-1.58-1.47-2.33Z"/>
  <path class="cls-4" d="M658.22,312.27l.53-.02c.55,1.94.62,6.61.02,8.48h-.53c-.25-2.64-.2-5.8-.02-8.46Z"/>
  <path class="cls-2" d="M611.39,313.37c1.02.21-.31,2.79-1.16,2.32-.41-.91-.02-1.68,1.16-2.32Z"/>
  <path class="cls-2" d="M645.32,313.39c.95-.14,2.19,1.34,1.44,2.29-.86.25-1.77-1.53-1.44-2.29Z"/>
  <path class="cls-2" d="M652.55,313.39c.11.65-1.65,2.91-2.38,2.39-.37-1.2,1.1-2.89,2.38-2.39Z"/>
  <path class="cls-4" d="M660.06,313.21c3.75-.34,7.99-.35,11.74,0,.32,1.8.32,4.78-.01,6.59-3.7.33-7.92.33-11.63,0-.66-1.39-.53-5.08-.1-6.58Z"/>
  <path class="cls-4" d="M745.17,313.04c3.52-.04,7.35-.18,10.88.13.78.81.78,5.85,0,6.66-3.55.32-7.3.18-10.85.08-.5-1.87-.44-4.97-.03-6.87Z"/>
  <path class="cls-2" d="M605.98,314.06c.69.33.95.88.77,1.65-.89.38-2.83-1.94-.77-1.65Z"/>
  <path class="cls-2" d="M732.64,315.71c-.8.16-1.33-.09-1.59-.73-.24-2.07,1.91-.16,1.59.73Z"/>
  <path class="cls-2" d="M736.88,314.15c.22,1.23-.3,1.75-1.54,1.57.11-1.19.62-1.71,1.54-1.57Z"/>
  <path class="cls-2" d="M564.65,318.4c.3.79.32,1.54.04,2.26-.82.49-.73-2.66-.04-2.26Z"/>
  <path class="cls-2" d="M607.43,318.43c2.04-1.21,2.4,3.95.74,3.41-.35-1.01-.98-2.32-.74-3.41Z"/>
  <path class="cls-2" d="M649.56,318.44c.22,1.1-.41,2.4-.71,3.44-1.7.62-1.33-4.65.71-3.44Z"/>
  <path class="cls-2" d="M733.47,318.46h1.07c.31,1.1.84,3.85-1.18,3.18-.31-1.16-.28-2.23.11-3.18Z"/>
  <path class="cls-2" d="M484.44,319.46h4.12c.36.68.35,1.37-.01,2.07-1.69-.41-5.68,1.21-4.11-2.07Z"/>
  <text class="cls-6" transform="translate(393.4 300.14)"><tspan x="0" y="0">Business</tspan><tspan x="7.06" y="16.8">Center</tspan></text>
  <text class="cls-7" transform="translate(615.98 138.42)"><tspan x="0" y="0">Staff &amp; Speaker</tspan><tspan x="18.22" y="28.8">Green Room</tspan></text>
  <text class="cls-8" transform="translate(533.55 349.71)"><tspan x="0" y="0">Ambrella</tspan></text>
  <text class="cls-6" transform="translate(643.84 260.99)"><tspan x="0" y="0">Laelia</tspan></text>
  <g>
    <g>
      <circle class="cls-3" cx="366.75" cy="219.23" r="11.25"/>
      <polygon class="cls-4" points="360.59 224.11 358.88 214.36 360.36 214.36 361.45 221.05 362.77 214.36 364.49 214.36 365.76 221.17 366.86 214.36 368.33 214.36 366.58 224.11 365.03 224.11 363.6 216.82 362.17 224.11 360.59 224.11"/>
      <path class="cls-4" d="M372,222.72c-.72,0-1.31-.63-1.31-1.39v-4.18c0-.77.59-1.39,1.31-1.39s1.31.62,1.31,1.39h1.31c0-1.54-1.18-2.79-2.62-2.79s-2.62,1.25-2.62,2.79v4.18c0,1.54,1.18,2.79,2.62,2.79s2.62-1.25,2.62-2.79h-1.31c0,.77-.59,1.39-1.31,1.39Z"/>
    </g>
    <g>
      <circle class="cls-3" cx="390.75" cy="219.23" r="11.25"/>
      <polygon class="cls-4" points="397 223.36 396.07 224.35 393.84 220.91 391.12 220.91 391.12 219.37 394.12 219.37 394.12 217.82 391.12 217.82 391.12 214.73 389.63 214.73 389.63 222.45 393.04 222.45 395.81 226.73 397.88 224.63 397 223.36"/>
      <circle class="cls-4" cx="390.38" cy="212.11" r="1.5"/>
      <path class="cls-4" d="M389.77,225.56c-1.71,0-3.09-1.39-3.09-3.09,0-1.14.62-2.14,1.55-2.67v-1.69c-1.8.64-3.09,2.35-3.09,4.37,0,2.55,2.08,4.63,4.64,4.63,1.46,0,2.76-.67,3.61-1.73l-.92-1.38c-.53.93-1.54,1.56-2.69,1.56Z"/>
    </g>
  </g>
  <g>
    <g>
      <circle class="cls-3" cx="585.95" cy="240.62" r="11.25"/>
      <polygon class="cls-4" points="579.79 245.49 578.08 235.74 579.56 235.74 580.65 242.44 581.97 235.74 583.69 235.74 584.96 242.55 586.06 235.74 587.53 235.74 585.78 245.49 584.23 245.49 582.8 238.2 581.37 245.49 579.79 245.49"/>
      <path class="cls-4" d="M591.2,244.1c-.72,0-1.31-.63-1.31-1.39v-4.18c0-.77.59-1.39,1.31-1.39s1.31.62,1.31,1.39h1.31c0-1.54-1.18-2.79-2.62-2.79s-2.62,1.25-2.62,2.79v4.18c0,1.54,1.18,2.79,2.62,2.79s2.62-1.25,2.62-2.79h-1.31c0,.77-.59,1.39-1.31,1.39Z"/>
    </g>
    <g>
      <circle class="cls-3" cx="585.95" cy="269.42" r="11.25"/>
      <polygon class="cls-4" points="592.2 273.54 591.27 274.54 589.04 271.09 586.32 271.09 586.32 269.55 589.32 269.55 589.32 268 586.32 268 586.32 264.92 584.83 264.92 584.83 272.64 588.24 272.64 591.01 276.92 593.08 274.82 592.2 273.54"/>
      <circle class="cls-4" cx="585.58" cy="262.29" r="1.5"/>
      <path class="cls-4" d="M584.97,275.75c-1.71,0-3.09-1.39-3.09-3.09,0-1.14.62-2.14,1.55-2.67v-1.69c-1.8.64-3.09,2.35-3.09,4.37,0,2.55,2.08,4.63,4.64,4.63,1.46,0,2.76-.67,3.61-1.73l-.92-1.38c-.53.93-1.54,1.56-2.69,1.56Z"/>
    </g>
  </g>
  <g>
    <g>
      <circle class="cls-3" cx="812.7" cy="241.95" r="11.25"/>
      <polygon class="cls-4" points="806.54 246.83 804.82 237.08 806.31 237.08 807.4 243.77 808.71 237.08 810.44 237.08 811.7 243.89 812.81 237.08 814.27 237.08 812.52 246.83 810.98 246.83 809.55 239.54 808.12 246.83 806.54 246.83"/>
      <path class="cls-4" d="M817.95,245.44c-.72,0-1.31-.63-1.31-1.39v-4.18c0-.77.59-1.39,1.31-1.39s1.31.62,1.31,1.39h1.31c0-1.54-1.18-2.79-2.62-2.79s-2.62,1.25-2.62,2.79v4.18c0,1.54,1.18,2.79,2.62,2.79s2.62-1.25,2.62-2.79h-1.31c0,.77-.59,1.39-1.31,1.39Z"/>
    </g>
    <g>
      <circle class="cls-3" cx="812.7" cy="270.75" r="11.25"/>
      <polygon class="cls-4" points="818.95 274.88 818.02 275.87 815.79 272.43 813.07 272.43 813.07 270.89 816.06 270.89 816.06 269.34 813.07 269.34 813.07 266.25 811.57 266.25 811.57 273.98 814.99 273.98 817.75 278.25 819.82 276.15 818.95 274.88"/>
      <circle class="cls-4" cx="812.32" cy="263.63" r="1.5"/>
      <path class="cls-4" d="M811.71,277.08c-1.71,0-3.09-1.39-3.09-3.09,0-1.14.62-2.14,1.55-2.67v-1.69c-1.8.64-3.09,2.35-3.09,4.37,0,2.55,2.08,4.63,4.64,4.63,1.46,0,2.76-.67,3.61-1.73l-.92-1.38c-.53.93-1.54,1.56-2.69,1.56Z"/>
    </g>
  </g>
  <text class="cls-7" transform="translate(483.18 413.1)"><tspan x="0" y="0">Quiet Room</tspan></text>
  <line class="cls-1" x1="701" y1="175.99" x2="665.87" y2="224.56"/>
  <line class="cls-1" x1="722" y1="536" x2="686.87" y2="584.56"/>
  <line class="cls-5" x1="701" y1="175.99" x2="665.87" y2="224.56"/>
  <line class="cls-5" x1="549.5" y1="375.03" x2="549.5" y2="389"/>
</svg>