<svg xmlns="http://www.w3.org/2000/svg" xmlns:xlink="http://www.w3.org/1999/xlink" width="1200" zoomAndPan="magnify" viewBox="0 0 900 472.499986" height="630" preserveAspectRatio="xMidYMid meet" version="1.2"><defs/><g id="47aada79b4"><path style=" stroke:none;fill-rule:nonzero;fill:#ffffff;fill-opacity:1;" d="M 93.523438 121.0625 L 139.175781 117.582031 C 151.023438 113.753906 162.871094 109.574219 174.71875 105.746094 C 178.898438 104.703125 183.082031 104.007812 186.914062 102.960938 L 203.640625 99.480469 C 208.519531 98.4375 213.050781 97.394531 217.929688 96.699219 L 327.347656 76.511719 C 346.515625 65.023438 366.027344 53.539062 385.195312 42.398438 C 390.421875 60.847656 395.648438 79.644531 401.222656 98.089844 C 401.570312 101.917969 402.269531 106.09375 402.617188 109.925781 C 402.964844 113.054688 403.3125 116.1875 403.664062 119.667969 C 403.664062 119.667969 404.707031 129.066406 405.40625 137.769531 C 406.101562 147.167969 407.148438 165.613281 406.800781 189.628906 C 400.527344 189.628906 395.300781 189.628906 391.464844 189.628906 C 381.710938 190.328125 378.222656 191.371094 368.46875 191.71875 C 364.285156 191.71875 360.800781 191.71875 353.832031 191.71875 C 339.195312 191.71875 338.847656 190.675781 329.089844 190.675781 C 319.332031 190.675781 319.332031 191.371094 304.699219 191.71875 C 301.210938 191.71875 301.5625 191.71875 286.925781 191.71875 C 286.925781 191.71875 286.925781 191.71875 259.746094 191.71875 C 232.5625 191.71875 243.714844 191.71875 236.050781 191.71875 L 124.886719 191.71875 C 116.871094 184.410156 108.859375 177.101562 100.496094 169.789062 C 95.617188 159.347656 90.738281 148.90625 85.511719 138.8125 L 84.8125 128.71875 C 87.253906 126.28125 90.039062 123.847656 92.480469 121.410156 Z M 93.523438 121.0625 "/><path style=" stroke:none;fill-rule:nonzero;fill:#ffffff;fill-opacity:1;" d="M 132.554688 316.324219 L 376.832031 316.324219 C 387.285156 316.324219 388.679688 316.324219 392.511719 316.324219 C 394.949219 316.324219 398.785156 317.019531 403.3125 318.066406 C 404.011719 318.761719 405.058594 319.457031 405.753906 319.804688 C 405.753906 323.632812 405.753906 329.203125 405.058594 336.164062 C 405.058594 336.164062 405.058594 336.859375 405.058594 337.207031 C 404.359375 343.125 403.664062 345.910156 401.222656 358.441406 C 401.222656 358.789062 401.222656 358.789062 401.222656 359.136719 C 399.828125 366.445312 394.949219 370.621094 391.117188 373.058594 C 383.453125 378.28125 375.4375 381.410156 355.574219 388.375 C 343.027344 392.898438 343.378906 391.855469 326.300781 397.421875 C 309.574219 403.339844 303.652344 406.125 289.015625 409.953125 C 281.351562 412.042969 275.425781 413.085938 271.59375 413.78125 C 229.429688 421.789062 187.261719 429.445312 145.097656 437.449219 C 144.75 429.097656 144.402344 420.394531 144.054688 412.042969 C 144.054688 407.863281 143.703125 404.035156 143.355469 399.859375 C 142.3125 383.152344 140.917969 366.097656 139.871094 349.390625 L 133.25 316.324219 Z M 132.554688 316.324219 "/><path style=" stroke:none;fill-rule:nonzero;fill:#3f96b4;fill-opacity:1;" d="M 223.503906 185.105469 C 228.382812 187.542969 231.867188 188.933594 236.746094 191.71875 C 247.546875 184.0625 259.746094 176.054688 270.894531 168.746094 C 255.5625 151.34375 239.882812 134.636719 223.15625 118.625 C 217.230469 113.054688 209.566406 105.398438 203.640625 99.832031 C 197.71875 101.222656 192.839844 102.265625 186.914062 103.3125 C 199.808594 128.71875 212.703125 159 223.503906 185.105469 "/><path style=" stroke:none;fill-rule:nonzero;fill:#b6dce1;fill-opacity:1;" d="M 386.585938 38.917969 C 386.585938 38.917969 385.890625 38.917969 385.542969 38.917969 C 379.269531 41.703125 375.4375 43.097656 370.210938 45.53125 C 321.074219 66.417969 270.199219 84.167969 217.929688 96.347656 C 240.230469 117.234375 261.140625 139.160156 281.351562 162.132812 C 318.289062 138.8125 361.847656 115.839844 401.222656 97.742188 C 398.785156 77.554688 393.207031 58.757812 386.585938 39.617188 C 386.585938 39.617188 386.585938 38.917969 386.238281 38.917969 "/><path style=" stroke:none;fill-rule:nonzero;fill:#3f96b4;fill-opacity:1;" d="M 208.867188 181.277344 C 199.109375 156.914062 186.914062 129.414062 175.066406 105.746094 C 163.566406 108.183594 109.902344 118.972656 93.875 121.0625 C 92.480469 121.757812 91.085938 123.148438 89.691406 124.195312 C 88.296875 125.585938 87.253906 126.980469 85.859375 128.371094 C 127.675781 142.988281 169.144531 160.742188 208.867188 180.929688 "/><path style=" stroke:none;fill-rule:nonzero;fill:#003e52;fill-opacity:1;" d="M 264.625 393.941406 C 266.015625 394.988281 267.0625 395.683594 268.109375 396.726562 C 264.273438 371.667969 259.398438 346.605469 253.472656 321.894531 C 240.578125 334.421875 227.6875 346.257812 214.09375 357.742188 C 231.171875 369.230469 247.898438 381.0625 264.273438 393.59375 "/><path style=" stroke:none;fill-rule:nonzero;fill:#003e52;fill-opacity:1;" d="M 270.894531 414.128906 C 270.894531 412.390625 270.199219 409.257812 269.851562 407.863281 C 249.988281 392.203125 228.382812 376.539062 207.472656 362.269531 C 186.914062 380.019531 165.308594 396.726562 143.355469 412.390625 C 143.703125 420.742188 144.054688 429.445312 144.402344 437.796875 C 148.582031 437.449219 152.765625 436.753906 156.945312 436.058594 C 194.582031 430.835938 270.199219 414.824219 270.894531 414.128906 "/><path style=" stroke:none;fill-rule:nonzero;fill:#b6dce1;fill-opacity:1;" d="M 408.890625 191.71875 C 408.890625 180.929688 407.84375 170.488281 407.148438 158.304688 C 406.800781 151.691406 406.101562 144.035156 405.753906 137.421875 C 394.253906 155.519531 382.058594 173.96875 369.164062 191.71875 Z M 408.890625 191.71875 "/><path style=" stroke:none;fill-rule:nonzero;fill:#006072;fill-opacity:1;" d="M 367.769531 316.324219 C 356.96875 327.460938 346.863281 338.949219 336.757812 350.78125 C 321.074219 369.230469 302.605469 390.808594 288.320312 410.300781 C 290.757812 410.300781 361.847656 389.417969 395.996094 375.496094 C 398.085938 368.535156 398.785156 366.445312 400.179688 358.789062 C 393.558594 346.257812 384.496094 329.550781 376.480469 316.324219 L 367.421875 316.324219 Z M 367.769531 316.324219 "/><path style=" stroke:none;fill-rule:nonzero;fill:#b6dce1;fill-opacity:1;" d="M 354.527344 191.71875 C 371.953125 168.398438 389.722656 142.988281 404.011719 119.320312 C 403.664062 115.144531 403.3125 113.753906 402.964844 109.574219 C 364.632812 127.328125 324.210938 148.558594 288.667969 170.835938 C 294.59375 177.449219 300.167969 184.410156 305.742188 191.371094 L 354.527344 191.371094 Z M 354.527344 191.71875 "/><path style=" stroke:none;fill-rule:nonzero;fill:#006072;fill-opacity:1;" d="M 207.824219 191.71875 C 205.730469 190.675781 203.640625 189.628906 201.550781 188.585938 C 164.265625 169.789062 125.585938 152.386719 86.554688 138.8125 C 91.433594 152.734375 97.707031 170.488281 103.980469 192.066406 L 208.171875 192.066406 Z M 207.824219 191.71875 "/><path style=" stroke:none;fill-rule:nonzero;fill:#003e52;fill-opacity:1;" d="M 151.023438 316.324219 C 169.492188 326.765625 187.261719 337.554688 205.382812 349.390625 C 217.582031 338.601562 229.777344 327.8125 241.625 316.324219 Z M 151.023438 316.324219 "/><path style=" stroke:none;fill-rule:nonzero;fill:#006072;fill-opacity:1;" d="M 266.015625 316.324219 C 271.246094 338.253906 276.121094 360.527344 279.609375 382.804688 C 280.652344 389.070312 281.699219 395.335938 282.394531 401.949219 C 304.347656 372.015625 328.046875 343.472656 353.484375 316.324219 L 265.667969 316.324219 Z M 266.015625 316.324219 "/><path style=" stroke:none;fill-rule:nonzero;fill:#003e52;fill-opacity:1;" d="M 135.691406 316.324219 L 132.554688 316.324219 C 137.082031 344.167969 140.570312 371.667969 142.660156 399.859375 C 162.523438 385.589844 181.6875 370.621094 200.503906 354.609375 C 191.445312 348.695312 182.382812 342.777344 172.976562 337.207031 C 160.78125 329.898438 148.234375 322.9375 136.039062 316.324219 Z M 135.691406 316.324219 "/><path style=" stroke:none;fill-rule:nonzero;fill:#3f96b4;fill-opacity:1;" d="M 287.621094 191.71875 C 284.136719 187.542969 280.304688 183.015625 276.820312 178.839844 C 270.199219 183.015625 263.925781 187.195312 257.304688 191.71875 Z M 287.621094 191.71875 "/><path style=" stroke:none;fill-rule:nonzero;fill:#3f96b4;fill-opacity:1;" d="M 392.164062 316.324219 C 396.34375 323.285156 400.527344 330.59375 404.011719 337.207031 C 404.707031 330.941406 405.40625 325.027344 406.101562 318.761719 C 405.058594 318.066406 404.011719 317.019531 402.964844 316.324219 L 391.816406 316.324219 Z M 392.164062 316.324219 "/><path style=" stroke:none;fill-rule:nonzero;fill:#231f20;fill-opacity:1;" d="M 80.980469 248.800781 L 70.527344 248.800781 C 70.527344 248.453125 70.527344 248.105469 70.527344 247.757812 C 70.527344 245.667969 69.828125 244.277344 68.785156 243.929688 C 67.738281 243.230469 65.300781 243.230469 61.464844 243.230469 C 55.890625 243.230469 53.101562 244.972656 53.101562 248.453125 C 53.101562 250.890625 53.449219 252.28125 54.496094 252.628906 C 55.542969 252.976562 58.679688 253.324219 64.253906 253.671875 C 71.921875 254.023438 76.796875 255.066406 78.890625 256.804688 C 80.980469 258.546875 82.375 261.679688 82.375 266.898438 C 82.375 272.121094 80.980469 275.949219 77.84375 278.039062 C 74.707031 280.125 69.480469 281.171875 61.464844 281.171875 C 53.800781 281.171875 48.921875 280.125 46.132812 278.386719 C 43.34375 276.644531 41.953125 273.164062 41.953125 267.945312 L 41.953125 266.898438 C 41.953125 266.898438 52.753906 266.898438 52.753906 266.898438 C 52.753906 267.597656 52.753906 267.945312 52.753906 268.292969 C 52.40625 272.121094 55.195312 274.210938 61.8125 274.210938 C 68.433594 274.210938 71.921875 272.46875 71.921875 268.640625 C 71.921875 264.8125 69.828125 263.070312 65.648438 263.070312 C 56.238281 263.070312 49.964844 262.027344 47.179688 260.285156 C 44.042969 258.546875 42.648438 254.71875 42.648438 249.148438 C 42.648438 244.277344 44.042969 240.796875 46.832031 239.054688 C 49.617188 237.316406 54.84375 236.269531 62.511719 236.617188 C 69.828125 236.617188 74.707031 237.664062 77.148438 239.402344 C 79.585938 241.144531 80.980469 244.625 80.980469 249.496094 "/><path style=" stroke:none;fill-rule:nonzero;fill:#231f20;fill-opacity:1;" d="M 101.539062 218.171875 L 101.539062 226.871094 C 101.539062 226.871094 91.085938 226.871094 91.085938 226.871094 L 91.085938 218.171875 C 91.085938 218.171875 101.539062 218.171875 101.539062 218.171875 Z M 101.539062 236.617188 L 101.539062 280.472656 C 101.539062 280.472656 90.738281 280.472656 90.738281 280.472656 L 90.738281 236.617188 C 90.738281 236.617188 101.539062 236.617188 101.539062 236.617188 Z M 101.539062 236.617188 "/><path style=" stroke:none;fill-rule:nonzero;fill:#231f20;fill-opacity:1;" d="M 147.886719 236.964844 L 134.992188 257.503906 L 148.933594 280.820312 L 136.386719 280.820312 L 127.675781 264.8125 L 118.964844 280.472656 L 106.070312 280.472656 L 120.355469 257.503906 L 107.8125 236.964844 L 120.355469 236.964844 L 127.675781 250.890625 L 135.339844 236.964844 Z M 147.886719 236.964844 "/><path style=" stroke:none;fill-rule:nonzero;fill:#231f20;fill-opacity:1;" d="M 179.597656 280.820312 L 179.597656 244.972656 C 179.597656 244.972656 173.671875 244.972656 173.671875 244.972656 L 173.671875 236.964844 C 173.671875 236.964844 179.945312 236.964844 179.945312 236.964844 L 179.945312 232.441406 C 179.945312 226.871094 181.339844 223.042969 183.777344 220.957031 C 186.21875 218.867188 190.398438 217.824219 197.019531 217.824219 C 198.066406 217.824219 199.460938 217.824219 201.550781 217.824219 L 201.550781 226.175781 C 200.15625 226.175781 198.761719 225.480469 197.71875 225.480469 C 193.1875 225.480469 190.746094 227.570312 190.746094 232.441406 L 190.746094 236.964844 C 190.746094 236.964844 201.550781 236.964844 201.550781 236.964844 L 201.550781 244.972656 C 201.550781 244.972656 190.398438 244.972656 190.398438 244.972656 L 190.398438 280.820312 C 190.398438 280.820312 179.597656 280.820312 179.597656 280.820312 Z M 179.597656 280.820312 "/><path style=" stroke:none;fill-rule:nonzero;fill:#231f20;fill-opacity:1;" d="M 235.351562 254.71875 L 235.351562 252.976562 C 235.351562 249.496094 234.65625 247.058594 233.609375 246.015625 C 232.5625 244.972656 229.777344 244.277344 225.59375 244.277344 C 221.761719 244.277344 218.972656 244.972656 217.929688 246.015625 C 216.882812 247.410156 216.1875 249.84375 216.1875 254.371094 L 235.351562 254.371094 Z M 235.003906 267.246094 L 245.457031 267.246094 L 245.457031 268.988281 C 245.457031 277.691406 238.835938 281.867188 225.945312 281.867188 C 217.230469 281.867188 211.65625 280.472656 208.867188 277.339844 C 206.082031 274.210938 205.035156 267.945312 205.035156 258.546875 C 205.035156 250.191406 206.429688 244.277344 209.21875 241.492188 C 212.003906 238.707031 217.582031 236.964844 225.59375 237.316406 C 233.609375 237.316406 238.835938 238.707031 241.277344 241.839844 C 244.0625 244.625 245.109375 250.191406 245.109375 258.546875 L 245.109375 261.679688 C 245.109375 261.679688 215.488281 261.679688 215.488281 261.679688 C 215.488281 262.722656 215.488281 263.417969 215.488281 263.765625 C 215.488281 267.945312 216.1875 271.078125 217.582031 272.46875 C 218.972656 273.859375 221.414062 274.558594 225.59375 274.558594 C 229.429688 274.558594 231.867188 274.210938 233.261719 273.164062 C 234.308594 272.46875 235.003906 270.378906 235.003906 267.597656 "/><path style=" stroke:none;fill-rule:nonzero;fill:#231f20;fill-opacity:1;" d="M 283.09375 255.066406 L 283.09375 253.324219 C 283.09375 249.84375 282.394531 247.757812 281.351562 246.710938 C 280.304688 245.667969 277.515625 244.972656 273.335938 244.972656 C 269.503906 244.972656 266.714844 245.667969 265.667969 246.710938 C 264.625 248.105469 263.925781 250.539062 263.925781 255.066406 Z M 282.742188 267.597656 L 293.199219 267.597656 C 293.199219 267.597656 293.199219 269.335938 293.199219 269.335938 C 293.199219 278.039062 286.578125 282.214844 273.683594 282.214844 C 264.972656 282.214844 259.398438 280.820312 256.609375 277.691406 C 253.820312 274.558594 252.777344 268.292969 252.777344 258.894531 C 252.777344 250.191406 254.167969 244.625 256.957031 241.839844 C 259.746094 239.054688 265.320312 237.316406 273.335938 237.664062 C 281.351562 237.664062 286.578125 239.054688 289.015625 242.1875 C 291.804688 244.972656 292.847656 250.539062 292.847656 258.894531 L 292.847656 262.027344 C 292.847656 262.027344 263.230469 262.027344 263.230469 262.027344 C 263.230469 263.070312 263.230469 263.765625 263.230469 264.117188 C 263.230469 268.292969 263.925781 271.425781 265.320312 272.816406 C 266.714844 274.210938 269.152344 274.90625 273.335938 274.90625 C 277.167969 274.90625 279.609375 274.558594 281 273.511719 C 282.046875 272.816406 282.742188 270.726562 282.742188 267.945312 "/><path style=" stroke:none;fill-rule:nonzero;fill:#231f20;fill-opacity:1;" d="M 330.484375 238.011719 L 330.484375 246.015625 C 330.484375 246.015625 313.410156 246.015625 313.410156 246.015625 L 313.410156 267.945312 C 313.410156 272.121094 314.804688 274.210938 317.9375 274.210938 C 321.425781 274.210938 323.167969 271.773438 323.167969 266.898438 L 323.167969 265.160156 L 332.226562 265.160156 C 332.226562 265.160156 332.226562 267.246094 332.226562 267.246094 C 332.226562 269.335938 332.226562 271.078125 332.226562 272.46875 C 331.53125 279.082031 326.652344 282.5625 317.242188 282.5625 C 307.832031 282.5625 303.304688 278.039062 303.304688 269.683594 L 303.304688 246.015625 C 303.304688 246.015625 297.726562 246.015625 297.726562 246.015625 L 297.726562 238.011719 C 297.726562 238.011719 303.304688 238.011719 303.304688 238.011719 L 303.304688 228.265625 C 303.304688 228.265625 313.757812 228.265625 313.757812 228.265625 L 313.757812 238.011719 C 313.757812 238.011719 330.484375 238.011719 330.484375 238.011719 Z M 330.484375 238.011719 "/><path style=" stroke:none;fill-rule:nonzero;fill:#231f20;fill-opacity:1;" d="M 400.875 238.011719 L 400.875 281.867188 C 400.875 281.867188 390.074219 281.867188 390.074219 281.867188 L 390.769531 274.210938 C 388.679688 279.429688 383.800781 282.214844 376.480469 282.214844 C 366.375 282.214844 361.496094 277.339844 361.496094 267.246094 L 361.496094 238.011719 C 361.496094 238.011719 372.300781 238.011719 372.300781 238.011719 L 372.300781 264.8125 C 372.300781 268.640625 372.648438 271.078125 373.695312 272.121094 C 374.738281 273.164062 376.832031 273.859375 380.316406 273.859375 C 386.9375 273.859375 390.421875 270.03125 390.421875 261.679688 L 390.421875 237.664062 C 390.421875 237.664062 401.222656 237.664062 401.222656 237.664062 Z M 400.875 238.011719 "/><path style=" stroke:none;fill-rule:nonzero;fill:#231f20;fill-opacity:1;" d="M 432.238281 246.015625 C 428.054688 246.015625 425.617188 246.710938 424.222656 248.800781 C 422.828125 250.539062 422.480469 254.371094 422.480469 260.285156 C 422.480469 265.855469 423.175781 269.683594 424.222656 271.773438 C 425.617188 273.511719 428.054688 274.558594 432.238281 274.558594 C 436.417969 274.558594 438.859375 273.859375 440.253906 271.773438 C 441.644531 270.03125 441.996094 266.203125 441.996094 260.285156 C 441.996094 254.371094 441.296875 250.539062 440.253906 248.800781 C 438.859375 247.058594 436.417969 246.015625 431.890625 246.015625 M 411.328125 238.359375 L 422.132812 238.359375 C 422.132812 238.359375 421.78125 244.972656 421.78125 244.972656 C 424.222656 240.445312 429.101562 238.011719 436.070312 238.011719 C 442.34375 238.011719 446.871094 239.75 449.3125 242.882812 C 451.75 246.015625 452.796875 251.933594 452.796875 260.285156 C 452.796875 268.988281 451.402344 274.90625 448.964844 278.386719 C 446.523438 281.519531 441.996094 283.257812 435.722656 283.257812 C 428.753906 283.257812 424.222656 280.820312 422.132812 276.296875 L 422.132812 301.359375 C 422.132812 301.359375 410.980469 301.359375 410.980469 301.359375 L 410.980469 238.707031 Z M 411.328125 238.359375 "/><path style="fill:none;stroke-width:4;stroke-linecap:butt;stroke-linejoin:miter;stroke:#000000;stroke-opacity:1;stroke-miterlimit:4;" d="M 0.000058272 2.001685 L 544.596614 2.001685 " transform="matrix(0,-0.749207,0.749207,0,473.972979,442.484419)"/><g style="fill:#000000;fill-opacity:1;"><g transform="translate(530.813443, 164.299963)"><path style="stroke:none" d="M 17.453125 0.453125 C 14.472656 0.453125 11.597656 -0.00390625 8.828125 -0.921875 C 6.066406 -1.847656 3.894531 -3.046875 2.3125 -4.515625 L 4.40625 -8.921875 C 5.90625 -7.566406 7.832031 -6.460938 10.1875 -5.609375 C 12.539062 -4.765625 14.960938 -4.34375 17.453125 -4.34375 C 20.722656 -4.34375 23.164062 -4.898438 24.78125 -6.015625 C 26.40625 -7.128906 27.21875 -8.609375 27.21875 -10.453125 C 27.21875 -11.804688 26.773438 -12.90625 25.890625 -13.75 C 25.003906 -14.59375 23.910156 -15.238281 22.609375 -15.6875 C 21.316406 -16.144531 19.484375 -16.65625 17.109375 -17.21875 C 14.140625 -17.9375 11.738281 -18.648438 9.90625 -19.359375 C 8.082031 -20.078125 6.519531 -21.179688 5.21875 -22.671875 C 3.925781 -24.160156 3.28125 -26.164062 3.28125 -28.6875 C 3.28125 -30.789062 3.832031 -32.691406 4.9375 -34.390625 C 6.050781 -36.085938 7.738281 -37.441406 10 -38.453125 C 12.257812 -39.472656 15.0625 -39.984375 18.40625 -39.984375 C 20.738281 -39.984375 23.035156 -39.679688 25.296875 -39.078125 C 27.554688 -38.472656 29.492188 -37.609375 31.109375 -36.484375 L 29.25 -31.96875 C 27.59375 -33.019531 25.820312 -33.816406 23.9375 -34.359375 C 22.0625 -34.910156 20.21875 -35.1875 18.40625 -35.1875 C 15.207031 -35.1875 12.804688 -34.597656 11.203125 -33.421875 C 9.609375 -32.253906 8.8125 -30.75 8.8125 -28.90625 C 8.8125 -27.550781 9.257812 -26.453125 10.15625 -25.609375 C 11.0625 -24.765625 12.179688 -24.101562 13.515625 -23.625 C 14.859375 -23.15625 16.675781 -22.660156 18.96875 -22.140625 C 21.945312 -21.421875 24.335938 -20.703125 26.140625 -19.984375 C 27.953125 -19.273438 29.503906 -18.1875 30.796875 -16.71875 C 32.097656 -15.25 32.75 -13.269531 32.75 -10.78125 C 32.75 -8.71875 32.179688 -6.828125 31.046875 -5.109375 C 29.921875 -3.398438 28.207031 -2.046875 25.90625 -1.046875 C 23.613281 -0.046875 20.796875 0.453125 17.453125 0.453125 Z M 17.453125 0.453125 "/></g></g><g style="fill:#000000;fill-opacity:1;"><g transform="translate(572.485301, 164.299963)"><path style="stroke:none" d="M 17.953125 0.34375 C 14.984375 0.34375 12.3125 -0.3125 9.9375 -1.625 C 7.5625 -2.945312 5.707031 -4.765625 4.375 -7.078125 C 3.039062 -9.398438 2.375 -12.03125 2.375 -14.96875 C 2.375 -17.90625 3.039062 -20.53125 4.375 -22.84375 C 5.707031 -25.15625 7.5625 -26.957031 9.9375 -28.25 C 12.3125 -29.550781 14.984375 -30.203125 17.953125 -30.203125 C 20.929688 -30.203125 23.597656 -29.550781 25.953125 -28.25 C 28.304688 -26.957031 30.148438 -25.15625 31.484375 -22.84375 C 32.816406 -20.53125 33.484375 -17.90625 33.484375 -14.96875 C 33.484375 -12.03125 32.816406 -9.398438 31.484375 -7.078125 C 30.148438 -4.765625 28.304688 -2.945312 25.953125 -1.625 C 23.597656 -0.3125 20.929688 0.34375 17.953125 0.34375 Z M 17.953125 -4.40625 C 19.878906 -4.40625 21.601562 -4.847656 23.125 -5.734375 C 24.644531 -6.617188 25.835938 -7.859375 26.703125 -9.453125 C 27.578125 -11.054688 28.015625 -12.894531 28.015625 -14.96875 C 28.015625 -17.03125 27.578125 -18.863281 26.703125 -20.46875 C 25.835938 -22.070312 24.644531 -23.304688 23.125 -24.171875 C 21.601562 -25.035156 19.878906 -25.46875 17.953125 -25.46875 C 16.035156 -25.46875 14.3125 -25.035156 12.78125 -24.171875 C 11.257812 -23.304688 10.054688 -22.070312 9.171875 -20.46875 C 8.285156 -18.863281 7.84375 -17.03125 7.84375 -14.96875 C 7.84375 -12.894531 8.285156 -11.054688 9.171875 -9.453125 C 10.054688 -7.859375 11.257812 -6.617188 12.78125 -5.734375 C 14.3125 -4.847656 16.035156 -4.40625 17.953125 -4.40625 Z M 17.953125 -4.40625 "/></g></g><g style="fill:#000000;fill-opacity:1;"><g transform="translate(614.947664, 164.299963)"><path style="stroke:none" d="M 5.140625 -41.90625 L 10.5625 -41.90625 L 10.5625 0 L 5.140625 0 Z M 5.140625 -41.90625 "/></g></g><g style="fill:#000000;fill-opacity:1;"><g transform="translate(637.308503, 164.299963)"><path style="stroke:none" d="M 31.625 -29.921875 L 18.515625 0 L 12.984375 0 L -0.109375 -29.921875 L 5.53125 -29.921875 L 15.8125 -5.921875 L 26.3125 -29.921875 Z M 31.625 -29.921875 "/></g></g><g style="fill:#000000;fill-opacity:1;"><g transform="translate(675.479535, 164.299963)"><path style="stroke:none" d="M 5.140625 -29.921875 L 10.5625 -29.921875 L 10.5625 0 L 5.140625 0 Z M 7.859375 -35.6875 C 6.804688 -35.6875 5.929688 -36.023438 5.234375 -36.703125 C 4.535156 -37.378906 4.1875 -38.207031 4.1875 -39.1875 C 4.1875 -40.164062 4.535156 -41.003906 5.234375 -41.703125 C 5.929688 -42.398438 6.804688 -42.75 7.859375 -42.75 C 8.910156 -42.75 9.785156 -42.414062 10.484375 -41.75 C 11.179688 -41.09375 11.53125 -40.273438 11.53125 -39.296875 C 11.53125 -38.285156 11.179688 -37.429688 10.484375 -36.734375 C 9.785156 -36.035156 8.910156 -35.6875 7.859375 -35.6875 Z M 7.859375 -35.6875 "/></g></g><g style="fill:#000000;fill-opacity:1;"><g transform="translate(697.840374, 164.299963)"><path style="stroke:none" d="M 21.125 -30.203125 C 24.925781 -30.203125 27.945312 -29.101562 30.1875 -26.90625 C 32.425781 -24.707031 33.546875 -21.476562 33.546875 -17.21875 L 33.546875 0 L 28.125 0 L 28.125 -16.609375 C 28.125 -19.503906 27.425781 -21.6875 26.03125 -23.15625 C 24.632812 -24.625 22.640625 -25.359375 20.046875 -25.359375 C 17.109375 -25.359375 14.789062 -24.5 13.09375 -22.78125 C 11.40625 -21.070312 10.5625 -18.617188 10.5625 -15.421875 L 10.5625 0 L 5.140625 0 L 5.140625 -29.921875 L 10.328125 -29.921875 L 10.328125 -25.40625 C 11.421875 -26.945312 12.898438 -28.128906 14.765625 -28.953125 C 16.628906 -29.785156 18.75 -30.203125 21.125 -30.203125 Z M 21.125 -30.203125 "/></g></g><g style="fill:#000000;fill-opacity:1;"><g transform="translate(742.900128, 164.299963)"><path style="stroke:none" d="M 33.765625 -29.921875 L 33.765625 -4.0625 C 33.765625 1.164062 32.460938 5.03125 29.859375 7.53125 C 27.265625 10.039062 23.390625 11.296875 18.234375 11.296875 C 15.410156 11.296875 12.71875 10.910156 10.15625 10.140625 C 7.601562 9.367188 5.535156 8.265625 3.953125 6.828125 L 6.546875 2.65625 C 7.941406 3.863281 9.664062 4.8125 11.71875 5.5 C 13.769531 6.195312 15.882812 6.546875 18.0625 6.546875 C 21.570312 6.546875 24.160156 5.71875 25.828125 4.0625 C 27.503906 2.40625 28.34375 -0.113281 28.34375 -3.5 L 28.34375 -5.875 C 27.0625 -4.332031 25.488281 -3.175781 23.625 -2.40625 C 21.769531 -1.632812 19.75 -1.25 17.5625 -1.25 C 14.695312 -1.25 12.109375 -1.859375 9.796875 -3.078125 C 7.484375 -4.296875 5.664062 -6.003906 4.34375 -8.203125 C 3.03125 -10.410156 2.375 -12.925781 2.375 -15.75 C 2.375 -18.570312 3.03125 -21.082031 4.34375 -23.28125 C 5.664062 -25.488281 7.484375 -27.191406 9.796875 -28.390625 C 12.109375 -29.597656 14.695312 -30.203125 17.5625 -30.203125 C 19.820312 -30.203125 21.921875 -29.785156 23.859375 -28.953125 C 25.796875 -28.128906 27.382812 -26.910156 28.625 -25.296875 L 28.625 -29.921875 Z M 18.1875 -5.984375 C 20.144531 -5.984375 21.90625 -6.394531 23.46875 -7.21875 C 25.03125 -8.050781 26.25 -9.210938 27.125 -10.703125 C 28.007812 -12.191406 28.453125 -13.875 28.453125 -15.75 C 28.453125 -18.65625 27.492188 -21 25.578125 -22.78125 C 23.660156 -24.570312 21.195312 -25.46875 18.1875 -25.46875 C 15.132812 -25.46875 12.644531 -24.570312 10.71875 -22.78125 C 8.800781 -21 7.84375 -18.65625 7.84375 -15.75 C 7.84375 -13.875 8.285156 -12.191406 9.171875 -10.703125 C 10.054688 -9.210938 11.28125 -8.050781 12.84375 -7.21875 C 14.40625 -6.394531 16.1875 -5.984375 18.1875 -5.984375 Z M 18.1875 -5.984375 "/></g></g><g style="fill:#000000;fill-opacity:1;"><g transform="translate(530.813443, 226.21651)"><path style="stroke:none" d="M 21.125 -30.203125 C 24.925781 -30.203125 27.945312 -29.101562 30.1875 -26.90625 C 32.425781 -24.707031 33.546875 -21.476562 33.546875 -17.21875 L 33.546875 0 L 28.125 0 L 28.125 -16.609375 C 28.125 -19.503906 27.425781 -21.6875 26.03125 -23.15625 C 24.632812 -24.625 22.640625 -25.359375 20.046875 -25.359375 C 17.109375 -25.359375 14.789062 -24.5 13.09375 -22.78125 C 11.40625 -21.070312 10.5625 -18.617188 10.5625 -15.421875 L 10.5625 0 L 5.140625 0 L 5.140625 -41.90625 L 10.5625 -41.90625 L 10.5625 -25.6875 C 11.6875 -27.125 13.160156 -28.234375 14.984375 -29.015625 C 16.816406 -29.804688 18.863281 -30.203125 21.125 -30.203125 Z M 21.125 -30.203125 "/></g></g><g style="fill:#000000;fill-opacity:1;"><g transform="translate(575.873196, 226.21651)"><path style="stroke:none" d="M 16.03125 -30.203125 C 20.175781 -30.203125 23.347656 -29.1875 25.546875 -27.15625 C 27.753906 -25.125 28.859375 -22.09375 28.859375 -18.0625 L 28.859375 0 L 23.71875 0 L 23.71875 -3.953125 C 22.8125 -2.554688 21.519531 -1.488281 19.84375 -0.75 C 18.164062 -0.0195312 16.179688 0.34375 13.890625 0.34375 C 10.535156 0.34375 7.851562 -0.460938 5.84375 -2.078125 C 3.832031 -3.703125 2.828125 -5.832031 2.828125 -8.46875 C 2.828125 -11.101562 3.785156 -13.21875 5.703125 -14.8125 C 7.617188 -16.414062 10.664062 -17.21875 14.84375 -17.21875 L 23.4375 -17.21875 L 23.4375 -18.296875 C 23.4375 -20.628906 22.757812 -22.414062 21.40625 -23.65625 C 20.050781 -24.90625 18.054688 -25.53125 15.421875 -25.53125 C 13.648438 -25.53125 11.914062 -25.234375 10.21875 -24.640625 C 8.53125 -24.054688 7.097656 -23.28125 5.921875 -22.3125 L 3.671875 -26.375 C 5.210938 -27.613281 7.054688 -28.5625 9.203125 -29.21875 C 11.347656 -29.875 13.625 -30.203125 16.03125 -30.203125 Z M 14.796875 -3.84375 C 16.867188 -3.84375 18.65625 -4.300781 20.15625 -5.21875 C 21.664062 -6.144531 22.757812 -7.453125 23.4375 -9.140625 L 23.4375 -13.328125 L 15.078125 -13.328125 C 10.484375 -13.328125 8.1875 -11.785156 8.1875 -8.703125 C 8.1875 -7.191406 8.769531 -6.003906 9.9375 -5.140625 C 11.101562 -4.273438 12.722656 -3.84375 14.796875 -3.84375 Z M 14.796875 -3.84375 "/></g></g><g style="fill:#000000;fill-opacity:1;"><g transform="translate(616.24636, 226.21651)"><path style="stroke:none" d="M 10.328125 -24.90625 C 11.273438 -26.632812 12.671875 -27.945312 14.515625 -28.84375 C 16.359375 -29.75 18.597656 -30.203125 21.234375 -30.203125 L 21.234375 -24.953125 C 20.929688 -24.992188 20.515625 -25.015625 19.984375 -25.015625 C 17.046875 -25.015625 14.738281 -24.140625 13.0625 -22.390625 C 11.394531 -20.640625 10.5625 -18.144531 10.5625 -14.90625 L 10.5625 0 L 5.140625 0 L 5.140625 -29.921875 L 10.328125 -29.921875 Z M 10.328125 -24.90625 "/></g></g><g style="fill:#000000;fill-opacity:1;"><g transform="translate(646.004111, 226.21651)"><path style="stroke:none" d="M 33.375 -41.90625 L 33.375 0 L 28.171875 0 L 28.171875 -4.75 C 26.972656 -3.09375 25.453125 -1.828125 23.609375 -0.953125 C 21.765625 -0.0859375 19.726562 0.34375 17.5 0.34375 C 14.601562 0.34375 12.003906 -0.296875 9.703125 -1.578125 C 7.410156 -2.859375 5.613281 -4.65625 4.3125 -6.96875 C 3.019531 -9.289062 2.375 -11.957031 2.375 -14.96875 C 2.375 -17.976562 3.019531 -20.628906 4.3125 -22.921875 C 5.613281 -25.222656 7.410156 -27.007812 9.703125 -28.28125 C 12.003906 -29.5625 14.601562 -30.203125 17.5 -30.203125 C 19.644531 -30.203125 21.617188 -29.796875 23.421875 -28.984375 C 25.234375 -28.179688 26.742188 -26.988281 27.953125 -25.40625 L 27.953125 -41.90625 Z M 17.953125 -4.40625 C 19.835938 -4.40625 21.550781 -4.847656 23.09375 -5.734375 C 24.632812 -6.617188 25.835938 -7.859375 26.703125 -9.453125 C 27.578125 -11.054688 28.015625 -12.894531 28.015625 -14.96875 C 28.015625 -17.03125 27.578125 -18.863281 26.703125 -20.46875 C 25.835938 -22.070312 24.632812 -23.304688 23.09375 -24.171875 C 21.550781 -25.035156 19.835938 -25.46875 17.953125 -25.46875 C 16.035156 -25.46875 14.3125 -25.035156 12.78125 -24.171875 C 11.257812 -23.304688 10.054688 -22.070312 9.171875 -20.46875 C 8.285156 -18.863281 7.84375 -17.03125 7.84375 -14.96875 C 7.84375 -12.894531 8.285156 -11.054688 9.171875 -9.453125 C 10.054688 -7.859375 11.257812 -6.617188 12.78125 -5.734375 C 14.3125 -4.847656 16.035156 -4.40625 17.953125 -4.40625 Z M 17.953125 -4.40625 "/></g></g><g style="fill:#000000;fill-opacity:1;"><g transform="translate(691.12702, 226.21651)"><path style="stroke:none" d=""/></g></g><g style="fill:#000000;fill-opacity:1;"><g transform="translate(530.813443, 288.133057)"><path style="stroke:none" d="M 13.71875 0.34375 C 11.269531 0.34375 8.914062 0.015625 6.65625 -0.640625 C 4.40625 -1.304688 2.640625 -2.144531 1.359375 -3.15625 L 3.609375 -7.453125 C 4.929688 -6.515625 6.53125 -5.757812 8.40625 -5.1875 C 10.289062 -4.625 12.191406 -4.34375 14.109375 -4.34375 C 18.859375 -4.34375 21.234375 -5.695312 21.234375 -8.40625 C 21.234375 -9.3125 20.910156 -10.023438 20.265625 -10.546875 C 19.628906 -11.078125 18.832031 -11.460938 17.875 -11.703125 C 16.914062 -11.953125 15.550781 -12.226562 13.78125 -12.53125 C 11.375 -12.90625 9.40625 -13.335938 7.875 -13.828125 C 6.351562 -14.316406 5.046875 -15.144531 3.953125 -16.3125 C 2.859375 -17.476562 2.3125 -19.117188 2.3125 -21.234375 C 2.3125 -23.941406 3.441406 -26.113281 5.703125 -27.75 C 7.960938 -29.382812 10.992188 -30.203125 14.796875 -30.203125 C 16.785156 -30.203125 18.773438 -29.957031 20.765625 -29.46875 C 22.765625 -28.988281 24.40625 -28.332031 25.6875 -27.5 L 23.375 -23.203125 C 20.925781 -24.785156 18.046875 -25.578125 14.734375 -25.578125 C 12.441406 -25.578125 10.691406 -25.203125 9.484375 -24.453125 C 8.285156 -23.703125 7.6875 -22.703125 7.6875 -21.453125 C 7.6875 -20.472656 8.023438 -19.703125 8.703125 -19.140625 C 9.378906 -18.578125 10.210938 -18.160156 11.203125 -17.890625 C 12.203125 -17.628906 13.609375 -17.332031 15.421875 -17 C 17.828125 -16.582031 19.769531 -16.140625 21.25 -15.671875 C 22.738281 -15.203125 24.007812 -14.398438 25.0625 -13.265625 C 26.125 -12.140625 26.65625 -10.5625 26.65625 -8.53125 C 26.65625 -5.820312 25.492188 -3.664062 23.171875 -2.0625 C 20.859375 -0.457031 17.707031 0.34375 13.71875 0.34375 Z M 13.71875 0.34375 "/></g></g><g style="fill:#000000;fill-opacity:1;"><g transform="translate(565.709503, 288.133057)"><path style="stroke:none" d="M 17.953125 0.34375 C 14.984375 0.34375 12.3125 -0.3125 9.9375 -1.625 C 7.5625 -2.945312 5.707031 -4.765625 4.375 -7.078125 C 3.039062 -9.398438 2.375 -12.03125 2.375 -14.96875 C 2.375 -17.90625 3.039062 -20.53125 4.375 -22.84375 C 5.707031 -25.15625 7.5625 -26.957031 9.9375 -28.25 C 12.3125 -29.550781 14.984375 -30.203125 17.953125 -30.203125 C 20.929688 -30.203125 23.597656 -29.550781 25.953125 -28.25 C 28.304688 -26.957031 30.148438 -25.15625 31.484375 -22.84375 C 32.816406 -20.53125 33.484375 -17.90625 33.484375 -14.96875 C 33.484375 -12.03125 32.816406 -9.398438 31.484375 -7.078125 C 30.148438 -4.765625 28.304688 -2.945312 25.953125 -1.625 C 23.597656 -0.3125 20.929688 0.34375 17.953125 0.34375 Z M 17.953125 -4.40625 C 19.878906 -4.40625 21.601562 -4.847656 23.125 -5.734375 C 24.644531 -6.617188 25.835938 -7.859375 26.703125 -9.453125 C 27.578125 -11.054688 28.015625 -12.894531 28.015625 -14.96875 C 28.015625 -17.03125 27.578125 -18.863281 26.703125 -20.46875 C 25.835938 -22.070312 24.644531 -23.304688 23.125 -24.171875 C 21.601562 -25.035156 19.878906 -25.46875 17.953125 -25.46875 C 16.035156 -25.46875 14.3125 -25.035156 12.78125 -24.171875 C 11.257812 -23.304688 10.054688 -22.070312 9.171875 -20.46875 C 8.285156 -18.863281 7.84375 -17.03125 7.84375 -14.96875 C 7.84375 -12.894531 8.285156 -11.054688 9.171875 -9.453125 C 10.054688 -7.859375 11.257812 -6.617188 12.78125 -5.734375 C 14.3125 -4.847656 16.035156 -4.40625 17.953125 -4.40625 Z M 17.953125 -4.40625 "/></g></g><g style="fill:#000000;fill-opacity:1;"><g transform="translate(608.171866, 288.133057)"><path style="stroke:none" d="M 16.09375 -37.78125 C 12.851562 -37.78125 11.234375 -36.03125 11.234375 -32.53125 L 11.234375 -29.921875 L 19.9375 -29.921875 L 19.9375 -25.46875 L 11.34375 -25.46875 L 11.34375 0 L 5.921875 0 L 5.921875 -25.46875 L 0.84375 -25.46875 L 0.84375 -29.921875 L 5.921875 -29.921875 L 5.921875 -32.578125 C 5.921875 -35.554688 6.785156 -37.910156 8.515625 -39.640625 C 10.253906 -41.367188 12.6875 -42.234375 15.8125 -42.234375 C 17.019531 -42.234375 18.148438 -42.082031 19.203125 -41.78125 C 20.253906 -41.476562 21.15625 -41.046875 21.90625 -40.484375 L 20.265625 -36.359375 C 19.023438 -37.304688 17.632812 -37.78125 16.09375 -37.78125 Z M 16.09375 -37.78125 "/></g></g><g style="fill:#000000;fill-opacity:1;"><g transform="translate(634.711113, 288.133057)"><path style="stroke:none" d="M 21.96875 -1.75 C 21.175781 -1.070312 20.195312 -0.550781 19.03125 -0.1875 C 17.863281 0.164062 16.660156 0.34375 15.421875 0.34375 C 12.410156 0.34375 10.070312 -0.460938 8.40625 -2.078125 C 6.75 -3.703125 5.921875 -6.019531 5.921875 -9.03125 L 5.921875 -25.46875 L 0.84375 -25.46875 L 0.84375 -29.921875 L 5.921875 -29.921875 L 5.921875 -36.484375 L 11.34375 -36.484375 L 11.34375 -29.921875 L 19.9375 -29.921875 L 19.9375 -25.46875 L 11.34375 -25.46875 L 11.34375 -9.265625 C 11.34375 -7.640625 11.75 -6.394531 12.5625 -5.53125 C 13.375 -4.664062 14.53125 -4.234375 16.03125 -4.234375 C 17.6875 -4.234375 19.097656 -4.703125 20.265625 -5.640625 Z M 21.96875 -1.75 "/></g></g><g style="fill:#000000;fill-opacity:1;"><g transform="translate(664.694713, 288.133057)"><path style="stroke:none" d="M 50.421875 -29.921875 L 39.25 0 L 34.046875 0 L 25.40625 -22.703125 L 16.65625 0 L 11.46875 0 L 0.34375 -29.921875 L 5.484375 -29.921875 L 14.171875 -6.09375 L 23.203125 -29.921875 L 27.78125 -29.921875 L 36.640625 -5.984375 L 45.5625 -29.921875 Z M 50.421875 -29.921875 "/></g></g><g style="fill:#000000;fill-opacity:1;"><g transform="translate(722.063833, 288.133057)"><path style="stroke:none" d="M 16.03125 -30.203125 C 20.175781 -30.203125 23.347656 -29.1875 25.546875 -27.15625 C 27.753906 -25.125 28.859375 -22.09375 28.859375 -18.0625 L 28.859375 0 L 23.71875 0 L 23.71875 -3.953125 C 22.8125 -2.554688 21.519531 -1.488281 19.84375 -0.75 C 18.164062 -0.0195312 16.179688 0.34375 13.890625 0.34375 C 10.535156 0.34375 7.851562 -0.460938 5.84375 -2.078125 C 3.832031 -3.703125 2.828125 -5.832031 2.828125 -8.46875 C 2.828125 -11.101562 3.785156 -13.21875 5.703125 -14.8125 C 7.617188 -16.414062 10.664062 -17.21875 14.84375 -17.21875 L 23.4375 -17.21875 L 23.4375 -18.296875 C 23.4375 -20.628906 22.757812 -22.414062 21.40625 -23.65625 C 20.050781 -24.90625 18.054688 -25.53125 15.421875 -25.53125 C 13.648438 -25.53125 11.914062 -25.234375 10.21875 -24.640625 C 8.53125 -24.054688 7.097656 -23.28125 5.921875 -22.3125 L 3.671875 -26.375 C 5.210938 -27.613281 7.054688 -28.5625 9.203125 -29.21875 C 11.347656 -29.875 13.625 -30.203125 16.03125 -30.203125 Z M 14.796875 -3.84375 C 16.867188 -3.84375 18.65625 -4.300781 20.15625 -5.21875 C 21.664062 -6.144531 22.757812 -7.453125 23.4375 -9.140625 L 23.4375 -13.328125 L 15.078125 -13.328125 C 10.484375 -13.328125 8.1875 -11.785156 8.1875 -8.703125 C 8.1875 -7.191406 8.769531 -6.003906 9.9375 -5.140625 C 11.101562 -4.273438 12.722656 -3.84375 14.796875 -3.84375 Z M 14.796875 -3.84375 "/></g></g><g style="fill:#000000;fill-opacity:1;"><g transform="translate(762.436996, 288.133057)"><path style="stroke:none" d="M 10.328125 -24.90625 C 11.273438 -26.632812 12.671875 -27.945312 14.515625 -28.84375 C 16.359375 -29.75 18.597656 -30.203125 21.234375 -30.203125 L 21.234375 -24.953125 C 20.929688 -24.992188 20.515625 -25.015625 19.984375 -25.015625 C 17.046875 -25.015625 14.738281 -24.140625 13.0625 -22.390625 C 11.394531 -20.640625 10.5625 -18.144531 10.5625 -14.90625 L 10.5625 0 L 5.140625 0 L 5.140625 -29.921875 L 10.328125 -29.921875 Z M 10.328125 -24.90625 "/></g></g><g style="fill:#000000;fill-opacity:1;"><g transform="translate(792.194761, 288.133057)"><path style="stroke:none" d="M 32.1875 -14.796875 C 32.1875 -14.378906 32.148438 -13.832031 32.078125 -13.15625 L 7.796875 -13.15625 C 8.128906 -10.519531 9.285156 -8.398438 11.265625 -6.796875 C 13.242188 -5.203125 15.703125 -4.40625 18.640625 -4.40625 C 22.210938 -4.40625 25.09375 -5.609375 27.28125 -8.015625 L 30.265625 -4.515625 C 28.910156 -2.929688 27.222656 -1.722656 25.203125 -0.890625 C 23.191406 -0.0664062 20.945312 0.34375 18.46875 0.34375 C 15.300781 0.34375 12.492188 -0.304688 10.046875 -1.609375 C 7.597656 -2.910156 5.707031 -4.726562 4.375 -7.0625 C 3.039062 -9.394531 2.375 -12.03125 2.375 -14.96875 C 2.375 -17.863281 3.019531 -20.476562 4.3125 -22.8125 C 5.613281 -25.144531 7.398438 -26.957031 9.671875 -28.25 C 11.953125 -29.550781 14.523438 -30.203125 17.390625 -30.203125 C 20.253906 -30.203125 22.804688 -29.550781 25.046875 -28.25 C 27.285156 -26.957031 29.035156 -25.144531 30.296875 -22.8125 C 31.554688 -20.476562 32.1875 -17.804688 32.1875 -14.796875 Z M 17.390625 -25.640625 C 14.796875 -25.640625 12.625 -24.847656 10.875 -23.265625 C 9.125 -21.679688 8.097656 -19.609375 7.796875 -17.046875 L 26.984375 -17.046875 C 26.691406 -19.578125 25.664062 -21.640625 23.90625 -23.234375 C 22.15625 -24.835938 19.984375 -25.640625 17.390625 -25.640625 Z M 17.390625 -25.640625 "/></g></g><g style="fill:#000000;fill-opacity:1;"><g transform="translate(530.813443, 350.049604)"><path style="stroke:none" d="M 21 -30.203125 C 23.90625 -30.203125 26.503906 -29.5625 28.796875 -28.28125 C 31.097656 -27.007812 32.894531 -25.222656 34.1875 -22.921875 C 35.488281 -20.628906 36.140625 -17.976562 36.140625 -14.96875 C 36.140625 -11.957031 35.488281 -9.289062 34.1875 -6.96875 C 32.894531 -4.65625 31.097656 -2.859375 28.796875 -1.578125 C 26.503906 -0.296875 23.90625 0.34375 21 0.34375 C 18.851562 0.34375 16.882812 -0.0664062 15.09375 -0.890625 C 13.3125 -1.722656 11.800781 -2.929688 10.5625 -4.515625 L 10.5625 10.953125 L 5.140625 10.953125 L 5.140625 -29.921875 L 10.328125 -29.921875 L 10.328125 -25.1875 C 11.535156 -26.84375 13.0625 -28.09375 14.90625 -28.9375 C 16.75 -29.78125 18.78125 -30.203125 21 -30.203125 Z M 20.546875 -4.40625 C 22.472656 -4.40625 24.195312 -4.847656 25.71875 -5.734375 C 27.25 -6.617188 28.453125 -7.859375 29.328125 -9.453125 C 30.210938 -11.054688 30.65625 -12.894531 30.65625 -14.96875 C 30.65625 -17.03125 30.210938 -18.863281 29.328125 -20.46875 C 28.453125 -22.070312 27.25 -23.304688 25.71875 -24.171875 C 24.195312 -25.035156 22.472656 -25.46875 20.546875 -25.46875 C 18.671875 -25.46875 16.96875 -25.023438 15.4375 -24.140625 C 13.914062 -23.253906 12.710938 -22.019531 11.828125 -20.4375 C 10.941406 -18.851562 10.5 -17.03125 10.5 -14.96875 C 10.5 -12.894531 10.929688 -11.054688 11.796875 -9.453125 C 12.660156 -7.859375 13.863281 -6.617188 15.40625 -5.734375 C 16.957031 -4.847656 18.671875 -4.40625 20.546875 -4.40625 Z M 20.546875 -4.40625 "/></g></g><g style="fill:#000000;fill-opacity:1;"><g transform="translate(575.929662, 350.049604)"><path style="stroke:none" d="M 10.328125 -24.90625 C 11.273438 -26.632812 12.671875 -27.945312 14.515625 -28.84375 C 16.359375 -29.75 18.597656 -30.203125 21.234375 -30.203125 L 21.234375 -24.953125 C 20.929688 -24.992188 20.515625 -25.015625 19.984375 -25.015625 C 17.046875 -25.015625 14.738281 -24.140625 13.0625 -22.390625 C 11.394531 -20.640625 10.5625 -18.144531 10.5625 -14.90625 L 10.5625 0 L 5.140625 0 L 5.140625 -29.921875 L 10.328125 -29.921875 Z M 10.328125 -24.90625 "/></g></g><g style="fill:#000000;fill-opacity:1;"><g transform="translate(605.687414, 350.049604)"><path style="stroke:none" d="M 17.953125 0.34375 C 14.984375 0.34375 12.3125 -0.3125 9.9375 -1.625 C 7.5625 -2.945312 5.707031 -4.765625 4.375 -7.078125 C 3.039062 -9.398438 2.375 -12.03125 2.375 -14.96875 C 2.375 -17.90625 3.039062 -20.53125 4.375 -22.84375 C 5.707031 -25.15625 7.5625 -26.957031 9.9375 -28.25 C 12.3125 -29.550781 14.984375 -30.203125 17.953125 -30.203125 C 20.929688 -30.203125 23.597656 -29.550781 25.953125 -28.25 C 28.304688 -26.957031 30.148438 -25.15625 31.484375 -22.84375 C 32.816406 -20.53125 33.484375 -17.90625 33.484375 -14.96875 C 33.484375 -12.03125 32.816406 -9.398438 31.484375 -7.078125 C 30.148438 -4.765625 28.304688 -2.945312 25.953125 -1.625 C 23.597656 -0.3125 20.929688 0.34375 17.953125 0.34375 Z M 17.953125 -4.40625 C 19.878906 -4.40625 21.601562 -4.847656 23.125 -5.734375 C 24.644531 -6.617188 25.835938 -7.859375 26.703125 -9.453125 C 27.578125 -11.054688 28.015625 -12.894531 28.015625 -14.96875 C 28.015625 -17.03125 27.578125 -18.863281 26.703125 -20.46875 C 25.835938 -22.070312 24.644531 -23.304688 23.125 -24.171875 C 21.601562 -25.035156 19.878906 -25.46875 17.953125 -25.46875 C 16.035156 -25.46875 14.3125 -25.035156 12.78125 -24.171875 C 11.257812 -23.304688 10.054688 -22.070312 9.171875 -20.46875 C 8.285156 -18.863281 7.84375 -17.03125 7.84375 -14.96875 C 7.84375 -12.894531 8.285156 -11.054688 9.171875 -9.453125 C 10.054688 -7.859375 11.257812 -6.617188 12.78125 -5.734375 C 14.3125 -4.847656 16.035156 -4.40625 17.953125 -4.40625 Z M 17.953125 -4.40625 "/></g></g><g style="fill:#000000;fill-opacity:1;"><g transform="translate(648.149777, 350.049604)"><path style="stroke:none" d="M 21 -30.203125 C 23.90625 -30.203125 26.503906 -29.5625 28.796875 -28.28125 C 31.097656 -27.007812 32.894531 -25.222656 34.1875 -22.921875 C 35.488281 -20.628906 36.140625 -17.976562 36.140625 -14.96875 C 36.140625 -11.957031 35.488281 -9.289062 34.1875 -6.96875 C 32.894531 -4.65625 31.097656 -2.859375 28.796875 -1.578125 C 26.503906 -0.296875 23.90625 0.34375 21 0.34375 C 18.78125 0.34375 16.75 -0.0859375 14.90625 -0.953125 C 13.0625 -1.828125 11.535156 -3.09375 10.328125 -4.75 L 10.328125 0 L 5.140625 0 L 5.140625 -41.90625 L 10.5625 -41.90625 L 10.5625 -25.40625 C 11.757812 -26.988281 13.257812 -28.179688 15.0625 -28.984375 C 16.875 -29.796875 18.851562 -30.203125 21 -30.203125 Z M 20.546875 -4.40625 C 22.472656 -4.40625 24.195312 -4.847656 25.71875 -5.734375 C 27.25 -6.617188 28.453125 -7.859375 29.328125 -9.453125 C 30.210938 -11.054688 30.65625 -12.894531 30.65625 -14.96875 C 30.65625 -17.03125 30.210938 -18.863281 29.328125 -20.46875 C 28.453125 -22.070312 27.25 -23.304688 25.71875 -24.171875 C 24.195312 -25.035156 22.472656 -25.46875 20.546875 -25.46875 C 18.671875 -25.46875 16.957031 -25.035156 15.40625 -24.171875 C 13.863281 -23.304688 12.660156 -22.070312 11.796875 -20.46875 C 10.929688 -18.863281 10.5 -17.03125 10.5 -14.96875 C 10.5 -12.894531 10.929688 -11.054688 11.796875 -9.453125 C 12.660156 -7.859375 13.863281 -6.617188 15.40625 -5.734375 C 16.957031 -4.847656 18.671875 -4.40625 20.546875 -4.40625 Z M 20.546875 -4.40625 "/></g></g><g style="fill:#000000;fill-opacity:1;"><g transform="translate(693.265996, 350.049604)"><path style="stroke:none" d="M 5.140625 -41.90625 L 10.5625 -41.90625 L 10.5625 0 L 5.140625 0 Z M 5.140625 -41.90625 "/></g></g><g style="fill:#000000;fill-opacity:1;"><g transform="translate(715.626835, 350.049604)"><path style="stroke:none" d="M 32.1875 -14.796875 C 32.1875 -14.378906 32.148438 -13.832031 32.078125 -13.15625 L 7.796875 -13.15625 C 8.128906 -10.519531 9.285156 -8.398438 11.265625 -6.796875 C 13.242188 -5.203125 15.703125 -4.40625 18.640625 -4.40625 C 22.210938 -4.40625 25.09375 -5.609375 27.28125 -8.015625 L 30.265625 -4.515625 C 28.910156 -2.929688 27.222656 -1.722656 25.203125 -0.890625 C 23.191406 -0.0664062 20.945312 0.34375 18.46875 0.34375 C 15.300781 0.34375 12.492188 -0.304688 10.046875 -1.609375 C 7.597656 -2.910156 5.707031 -4.726562 4.375 -7.0625 C 3.039062 -9.394531 2.375 -12.03125 2.375 -14.96875 C 2.375 -17.863281 3.019531 -20.476562 4.3125 -22.8125 C 5.613281 -25.144531 7.398438 -26.957031 9.671875 -28.25 C 11.953125 -29.550781 14.523438 -30.203125 17.390625 -30.203125 C 20.253906 -30.203125 22.804688 -29.550781 25.046875 -28.25 C 27.285156 -26.957031 29.035156 -25.144531 30.296875 -22.8125 C 31.554688 -20.476562 32.1875 -17.804688 32.1875 -14.796875 Z M 17.390625 -25.640625 C 14.796875 -25.640625 12.625 -24.847656 10.875 -23.265625 C 9.125 -21.679688 8.097656 -19.609375 7.796875 -17.046875 L 26.984375 -17.046875 C 26.691406 -19.578125 25.664062 -21.640625 23.90625 -23.234375 C 22.15625 -24.835938 19.984375 -25.640625 17.390625 -25.640625 Z M 17.390625 -25.640625 "/></g></g><g style="fill:#000000;fill-opacity:1;"><g transform="translate(756.790517, 350.049604)"><path style="stroke:none" d="M 42.578125 -30.203125 C 46.335938 -30.203125 49.316406 -29.109375 51.515625 -26.921875 C 53.722656 -24.742188 54.828125 -21.507812 54.828125 -17.21875 L 54.828125 0 L 49.40625 0 L 49.40625 -16.609375 C 49.40625 -19.503906 48.738281 -21.6875 47.40625 -23.15625 C 46.070312 -24.625 44.160156 -25.359375 41.671875 -25.359375 C 38.921875 -25.359375 36.738281 -24.5 35.125 -22.78125 C 33.507812 -21.070312 32.703125 -18.617188 32.703125 -15.421875 L 32.703125 0 L 27.28125 0 L 27.28125 -16.609375 C 27.28125 -19.503906 26.609375 -21.6875 25.265625 -23.15625 C 23.929688 -24.625 22.019531 -25.359375 19.53125 -25.359375 C 16.789062 -25.359375 14.609375 -24.5 12.984375 -22.78125 C 11.367188 -21.070312 10.5625 -18.617188 10.5625 -15.421875 L 10.5625 0 L 5.140625 0 L 5.140625 -29.921875 L 10.328125 -29.921875 L 10.328125 -25.46875 C 11.421875 -27.007812 12.851562 -28.179688 14.625 -28.984375 C 16.394531 -29.796875 18.410156 -30.203125 20.671875 -30.203125 C 23.003906 -30.203125 25.070312 -29.734375 26.875 -28.796875 C 28.6875 -27.859375 30.082031 -26.484375 31.0625 -24.671875 C 32.1875 -26.410156 33.753906 -27.765625 35.765625 -28.734375 C 37.785156 -29.710938 40.054688 -30.203125 42.578125 -30.203125 Z M 42.578125 -30.203125 "/></g></g><g style="fill:#000000;fill-opacity:1;"><g transform="translate(823.081094, 350.049604)"><path style="stroke:none" d="M 13.71875 0.34375 C 11.269531 0.34375 8.914062 0.015625 6.65625 -0.640625 C 4.40625 -1.304688 2.640625 -2.144531 1.359375 -3.15625 L 3.609375 -7.453125 C 4.929688 -6.515625 6.53125 -5.757812 8.40625 -5.1875 C 10.289062 -4.625 12.191406 -4.34375 14.109375 -4.34375 C 18.859375 -4.34375 21.234375 -5.695312 21.234375 -8.40625 C 21.234375 -9.3125 20.910156 -10.023438 20.265625 -10.546875 C 19.628906 -11.078125 18.832031 -11.460938 17.875 -11.703125 C 16.914062 -11.953125 15.550781 -12.226562 13.78125 -12.53125 C 11.375 -12.90625 9.40625 -13.335938 7.875 -13.828125 C 6.351562 -14.316406 5.046875 -15.144531 3.953125 -16.3125 C 2.859375 -17.476562 2.3125 -19.117188 2.3125 -21.234375 C 2.3125 -23.941406 3.441406 -26.113281 5.703125 -27.75 C 7.960938 -29.382812 10.992188 -30.203125 14.796875 -30.203125 C 16.785156 -30.203125 18.773438 -29.957031 20.765625 -29.46875 C 22.765625 -28.988281 24.40625 -28.332031 25.6875 -27.5 L 23.375 -23.203125 C 20.925781 -24.785156 18.046875 -25.578125 14.734375 -25.578125 C 12.441406 -25.578125 10.691406 -25.203125 9.484375 -24.453125 C 8.285156 -23.703125 7.6875 -22.703125 7.6875 -21.453125 C 7.6875 -20.472656 8.023438 -19.703125 8.703125 -19.140625 C 9.378906 -18.578125 10.210938 -18.160156 11.203125 -17.890625 C 12.203125 -17.628906 13.609375 -17.332031 15.421875 -17 C 17.828125 -16.582031 19.769531 -16.140625 21.25 -15.671875 C 22.738281 -15.203125 24.007812 -14.398438 25.0625 -13.265625 C 26.125 -12.140625 26.65625 -10.5625 26.65625 -8.53125 C 26.65625 -5.820312 25.492188 -3.664062 23.171875 -2.0625 C 20.859375 -0.457031 17.707031 0.34375 13.71875 0.34375 Z M 13.71875 0.34375 "/></g></g></g></svg>